<?xml version="1.0" standalone="no"?>
<!DOCTYPE svg PUBLIC "-//W3C//DTD SVG 1.1//EN" "http://www.w3.org/Graphics/SVG/1.1/DTD/svg11.dtd" >
<svg xmlns="http://www.w3.org/2000/svg">
    <defs>
        <font id="alarmclock">
            <font-face font-family="alarmclock"
                       units-per-em="2048"
                       ascent="1716"
                       descent="-418"
                       bbox="-342 -418 2048 1716"
                    />
            <missing-glyph horiz-adv-x="0" />
            
            <glyph glyph-name="!" unicode="&#x21;" horiz-adv-x="457" d=" M313,328 L264,1364 Q264,1410 285,1433 Q306,1456 347,1456 Q389,1456 409.5,1433 Q430,1410 430,1364 L350,328 M223,167 L305,251 Q320,265 334,265 Q347,265 365,249 L445,163 Q457,147 457,134 Q457,119 443,103 L363,15 Q343,-5 334,-5 Q318,-5 305,9 L217,110 Q207,123 207,136 Q207,151 223,167"/> 
            <glyph glyph-name="&quot;" unicode="&#x22;" horiz-adv-x="1049" d=" M1014,1378 L1049,1336 L965,804 L888,741 L832,804 L900,1289 M461,800 L592,800 L673,1287 L540,1287"/> 
            <glyph glyph-name="#" unicode="&#x23;" horiz-adv-x="1219" d=" M596,859 L511,569 L753,569 L839,859 M673,1434 L766,1434 L625,957 L867,957 L1009,1434 L1101,1434 L960,957 L1219,957 L1190,860 L931,860 L848,570 L1127,570 L1097,472 L817,472 L677,0 L585,0 L724,472 L484,472 L342,0 L250,0 L390,472 L117,472 L147,570 L418,570 L504,860 L209,860 L238,957 L533,957"/> 
            <glyph glyph-name="$" unicode="&#x24;" horiz-adv-x="999" d=" M301,1434 L958,1434 L999,1393 L882,1301 L330,1301 L252,1406 M231,1392 L315,1287 L231,797 L166,747 L105,818 L196,1364 M814,790 L874,724 L795,651 L519,651 L538,790 M245,651 L175,727 L259,790 L522,790 L502,651 M881,700 L944,630 L853,82 L811,56 L729,155 L812,638 M164,141 L711,140 L790,35 L734,0 L84,0 L49,42 M461,800 L592,800 L673,1287 L540,1287 M448,640 L576,640 L499,153 L366,153"/> 
            <glyph glyph-name="%" unicode="&#x25;" horiz-adv-x="944" d=" M330,1301 L252,1406 L301,1434 L620,1434 L598,1301 M231,1392 L315,1287 L231,797 L166,747 L105,818 L196,1364 M814,790 L874,724 L795,651 L519,651 L538,790 M245,651 L175,727 L259,790 L522,790 L502,651 M881,700 L944,630 L853,82 L811,56 L729,155 L812,638 M711,140 L790,35 L734,0 L414,0 L439,140 M461,800 L592,800 L673,1287 L540,1287 M886,1287 L875,1204 L697,800 L606,800 L618,883 L799,1287 M448,640 L576,640 L499,153 L366,153 M435,639 L424,556 L246,152 L155,152 L167,235 L348,639"/> 
            <glyph glyph-name="&amp;" unicode="&#x26;" horiz-adv-x="874" d=" M330,1301 L252,1406 L301,1434 L620,1434 L598,1301 M814,790 L874,724 L795,651 L519,651 L538,790 M245,651 L175,727 L259,790 L522,790 L502,651 M161,707 L217,637 L144,155 L28,63 L0,105 L91,658 M711,140 L790,35 L734,0 L414,0 L439,140 M84,0 L49,42 L164,141 L427,140 L402,0 M326,1289 L408,1289 L464,890 L450,799 L361,799 L311,1202 M589,639 L671,639 L727,240 L713,149 L624,149 L574,552"/> 
            <glyph glyph-name="'" unicode="&#x27;" horiz-adv-x="673" d=" M461,800 L592,800 L673,1287 L540,1287"/> 
            <glyph glyph-name="(" unicode="&#x28;" horiz-adv-x="999" d=" M958,1434 L999,1393 L882,1301 L614,1301 L635,1434 M711,140 L790,35 L734,0 L414,0 L439,140 M461,800 L592,800 L673,1287 L540,1287 M448,640 L576,640 L499,153 L366,153"/> 
            <glyph glyph-name=")" unicode="&#x29;" horiz-adv-x="673" d=" M330,1301 L252,1406 L301,1434 L620,1434 L598,1301 M84,0 L49,42 L164,141 L427,140 L402,0 M461,800 L592,800 L673,1287 L540,1287 M448,640 L576,640 L499,153 L366,153"/> 
            <glyph glyph-name="*" unicode="&#x2A;" horiz-adv-x="886" d=" M814,790 L874,724 L795,651 L519,651 L538,790 M245,651 L175,727 L259,790 L522,790 L502,651 M461,800 L592,800 L673,1287 L540,1287 M886,1287 L875,1204 L697,800 L606,800 L618,883 L799,1287 M326,1289 L408,1289 L464,890 L450,799 L361,799 L311,1202 M448,640 L576,640 L499,153 L366,153 M589,639 L671,639 L727,240 L713,149 L624,149 L574,552 M435,639 L424,556 L246,152 L155,152 L167,235 L348,639"/> 
            <glyph glyph-name="+" unicode="&#x2B;" horiz-adv-x="874" d=" M814,790 L874,724 L795,651 L519,651 L538,790 M245,651 L175,727 L259,790 L522,790 L502,651 M461,800 L592,800 L673,1287 L540,1287 M448,640 L576,640 L499,153 L366,153"/> 
            <glyph glyph-name="," unicode="&#x2C;" horiz-adv-x="435" d=" M435,639 L424,556 L246,152 L155,152 L167,235 L348,639"/> 
            <glyph glyph-name="-" unicode="&#x2D;" horiz-adv-x="874" d=" M814,790 L874,724 L795,651 L519,651 L538,790 M245,651 L175,727 L259,790 L522,790 L502,651"/> 
            <glyph glyph-name="." unicode="&#x2E;" horiz-adv-x="379" d=" M145,167 L227,251 Q242,265 256,265 Q269,265 287,249 L367,163 Q379,147 379,134 Q379,119 365,103 L285,15 Q265,-5 256,-5 Q240,-5 227,9 L139,110 Q129,123 129,136 Q129,151 145,167"/> 
            <glyph glyph-name="/" unicode="&#x2F;" horiz-adv-x="886" d=" M886,1287 L875,1204 L697,800 L606,800 L618,883 L799,1287 M435,639 L424,556 L246,152 L155,152 L167,235 L348,639"/> 
            <glyph glyph-name="0" unicode="&#x30;" horiz-adv-x="1049" d=" M301,1434 L958,1434 L999,1393 L882,1301 L330,1301 L252,1406 M231,1392 L315,1287 L231,797 L166,747 L105,818 L196,1364 M1014,1378 L1049,1336 L965,804 L888,741 L832,804 L900,1289 M161,707 L217,637 L144,155 L28,63 L0,105 L91,658 M881,700 L944,630 L853,82 L811,56 L729,155 L812,638 M164,141 L711,140 L790,35 L734,0 L84,0 L49,42"/> 
            <glyph glyph-name="1" unicode="&#x31;" horiz-adv-x="1049" d=" M1014,1378 L1049,1336 L965,804 L888,741 L832,804 L900,1289 M881,700 L944,630 L853,82 L811,56 L729,155 L812,638"/> 
            <glyph glyph-name="2" unicode="&#x32;" horiz-adv-x="1049" d=" M301,1434 L958,1434 L999,1393 L882,1301 L330,1301 L252,1406 M1014,1378 L1049,1336 L965,804 L888,741 L832,804 L900,1289 M259,790 L814,790 L874,724 L795,651 L245,651 L175,727 M161,707 L217,637 L144,155 L28,63 L0,105 L91,658 M164,141 L711,140 L790,35 L734,0 L84,0 L49,42"/> 
            <glyph glyph-name="3" unicode="&#x33;" horiz-adv-x="1049" d=" M301,1434 L958,1434 L999,1393 L882,1301 L330,1301 L252,1406 M1014,1378 L1049,1336 L965,804 L888,741 L832,804 L900,1289 M259,790 L814,790 L874,724 L795,651 L245,651 L175,727 M881,700 L944,630 L853,82 L811,56 L729,155 L812,638 M164,141 L711,140 L790,35 L734,0 L84,0 L49,42"/> 
            <glyph glyph-name="4" unicode="&#x34;" horiz-adv-x="1049" d=" M231,1392 L315,1287 L231,797 L166,747 L105,818 L196,1364 M1014,1378 L1049,1336 L965,804 L888,741 L832,804 L900,1289 M259,790 L814,790 L874,724 L795,651 L245,651 L175,727 M881,700 L944,630 L853,82 L811,56 L729,155 L812,638"/> 
            <glyph glyph-name="5" unicode="&#x35;" horiz-adv-x="999" d=" M301,1434 L958,1434 L999,1393 L882,1301 L330,1301 L252,1406 M231,1392 L315,1287 L231,797 L166,747 L105,818 L196,1364 M259,790 L814,790 L874,724 L795,651 L245,651 L175,727 M881,700 L944,630 L853,82 L811,56 L729,155 L812,638 M164,141 L711,140 L790,35 L734,0 L84,0 L49,42"/> 
            <glyph glyph-name="6" unicode="&#x36;" horiz-adv-x="944" d=" M231,1392 L315,1287 L231,797 L166,747 L105,818 L196,1364 M259,790 L814,790 L874,724 L795,651 L245,651 L175,727 M161,707 L217,637 L144,155 L28,63 L0,105 L91,658 M881,700 L944,630 L853,82 L811,56 L729,155 L812,638 M164,141 L711,140 L790,35 L734,0 L84,0 L49,42"/> 
            <glyph glyph-name="7" unicode="&#x37;" horiz-adv-x="1049" d=" M301,1434 L958,1434 L999,1393 L882,1301 L330,1301 L252,1406 M231,1392 L315,1287 L231,797 L166,747 L105,818 L196,1364 M1014,1378 L1049,1336 L965,804 L888,741 L832,804 L900,1289 M881,700 L944,630 L853,82 L811,56 L729,155 L812,638"/> 
            <glyph glyph-name="8" unicode="&#x38;" horiz-adv-x="1049" d=" M301,1434 L958,1434 L999,1393 L882,1301 L330,1301 L252,1406 M231,1392 L315,1287 L231,797 L166,747 L105,818 L196,1364 M1014,1378 L1049,1336 L965,804 L888,741 L832,804 L900,1289 M259,790 L814,790 L874,724 L795,651 L245,651 L175,727 M161,707 L217,637 L144,155 L28,63 L0,105 L91,658 M881,700 L944,630 L853,82 L811,56 L729,155 L812,638 M164,141 L711,140 L790,35 L734,0 L84,0 L49,42"/> 
            <glyph glyph-name="9" unicode="&#x39;" horiz-adv-x="1049" d=" M301,1434 L958,1434 L999,1393 L882,1301 L330,1301 L252,1406 M231,1392 L315,1287 L231,797 L166,747 L105,818 L196,1364 M1014,1378 L1049,1336 L965,804 L888,741 L832,804 L900,1289 M259,790 L814,790 L874,724 L795,651 L245,651 L175,727 M881,700 L944,630 L853,82 L811,56 L729,155 L812,638 M164,141 L711,140 L790,35 L734,0 L84,0 L49,42"/> 
            <glyph glyph-name=":" unicode="&#x3A;" horiz-adv-x="379" d=" M145,167 L227,251 Q242,265 256,265 Q269,265 287,249 L367,163 Q379,147 379,134 Q379,119 365,103 L285,15 Q265,-5 256,-5 Q240,-5 227,9 L139,110 Q129,123 129,136 Q129,151 145,167 M145,860 L227,944 Q242,958 256,958 Q269,958 287,942 L367,856 Q379,840 379,827 Q379,812 365,796 L285,708 Q265,688 256,688 Q240,688 227,702 L139,803 Q129,816 129,829 Q129,844 145,860"/> 
            <glyph glyph-name=";" unicode="&#x3B;" horiz-adv-x="379" d=" M145,859 L227,943 Q242,957 256,957 Q269,957 287,941 L367,855 Q379,839 379,826 Q379,811 365,795 L285,707 Q265,687 256,687 Q240,687 227,701 L139,802 Q129,815 129,828 Q129,843 145,859 M238,258 Q282,258 326.5,192.5 Q371,127 371,41 Q371,-68 300,-185.5 Q229,-303 161,-303 L161,-260 Q234,-217 248,-70 Q248,49 119,91 L119,133"/> 
            <glyph glyph-name="&lt;" unicode="&#x3C;" horiz-adv-x="886" d=" M886,1287 L875,1204 L697,800 L606,800 L618,883 L799,1287 M589,639 L671,639 L727,240 L713,149 L624,149 L574,552"/> 
            <glyph glyph-name="=" unicode="&#x3D;" horiz-adv-x="874" d=" M814,790 L874,724 L795,651 L519,651 L538,790 M245,651 L175,727 L259,790 L522,790 L502,651 M711,140 L790,35 L734,0 L414,0 L439,140 M84,0 L49,42 L164,141 L427,140 L402,0"/> 
            <glyph glyph-name="&gt;" unicode="&#x3E;" horiz-adv-x="464" d=" M326,1289 L408,1289 L464,890 L450,799 L361,799 L311,1202 M435,639 L424,556 L246,152 L155,152 L167,235 L348,639"/> 
            <glyph glyph-name="?" unicode="&#x3F;" horiz-adv-x="1049" d=" M958,1434 L999,1393 L882,1301 L614,1301 L635,1434 M330,1301 L252,1406 L301,1434 L620,1434 L598,1301 M1014,1378 L1049,1336 L965,804 L888,741 L832,804 L900,1289 M814,790 L874,724 L795,651 L519,651 L538,790 M448,640 L576,640 L499,153 L366,153"/> 
            <glyph glyph-name="@" unicode="&#x40;" horiz-adv-x="1049" d=" M958,1434 L999,1393 L882,1301 L614,1301 L635,1434 M330,1301 L252,1406 L301,1434 L620,1434 L598,1301 M1014,1378 L1049,1336 L965,804 L888,741 L832,804 L900,1289 M245,651 L175,727 L259,790 L522,790 L502,651 M161,707 L217,637 L144,155 L28,63 L0,105 L91,658 M881,700 L944,630 L853,82 L811,56 L729,155 L812,638 M711,140 L790,35 L734,0 L414,0 L439,140 M84,0 L49,42 L164,141 L427,140 L402,0 M448,640 L576,640 L499,153 L366,153"/> 
            <glyph glyph-name="A" unicode="&#x41;" horiz-adv-x="1049" d=" M301,1434 L958,1434 L999,1393 L882,1301 L330,1301 L252,1406 M231,1392 L315,1287 L231,797 L166,747 L105,818 L196,1364 M1014,1378 L1049,1336 L965,804 L888,741 L832,804 L900,1289 M814,790 L874,724 L795,651 L519,651 L538,790 M245,651 L175,727 L259,790 L522,790 L502,651 M161,707 L217,637 L144,155 L28,63 L0,105 L91,658 M881,700 L944,630 L853,82 L811,56 L729,155 L812,638"/> 
            <glyph glyph-name="B" unicode="&#x42;" horiz-adv-x="1049" d=" M301,1434 L958,1434 L999,1393 L882,1301 L330,1301 L252,1406 M1014,1378 L1049,1336 L965,804 L888,741 L832,804 L900,1289 M814,790 L874,724 L795,651 L519,651 L538,790 M881,700 L944,630 L853,82 L811,56 L729,155 L812,638 M164,141 L711,140 L790,35 L734,0 L84,0 L49,42 M461,800 L592,800 L673,1287 L540,1287 M448,640 L576,640 L499,153 L366,153"/> 
            <glyph glyph-name="C" unicode="&#x43;" horiz-adv-x="999" d=" M301,1434 L958,1434 L999,1393 L882,1301 L330,1301 L252,1406 M231,1392 L315,1287 L231,797 L166,747 L105,818 L196,1364 M161,707 L217,637 L144,155 L28,63 L0,105 L91,658 M164,141 L711,140 L790,35 L734,0 L84,0 L49,42"/> 
            <glyph glyph-name="D" unicode="&#x44;" horiz-adv-x="1049" d=" M301,1434 L958,1434 L999,1393 L882,1301 L330,1301 L252,1406 M1014,1378 L1049,1336 L965,804 L888,741 L832,804 L900,1289 M881,700 L944,630 L853,82 L811,56 L729,155 L812,638 M164,141 L711,140 L790,35 L734,0 L84,0 L49,42 M461,800 L592,800 L673,1287 L540,1287 M448,640 L576,640 L499,153 L366,153"/> 
            <glyph glyph-name="E" unicode="&#x45;" horiz-adv-x="999" d=" M301,1434 L958,1434 L999,1393 L882,1301 L330,1301 L252,1406 M231,1392 L315,1287 L231,797 L166,747 L105,818 L196,1364 M814,790 L874,724 L795,651 L519,651 L538,790 M245,651 L175,727 L259,790 L522,790 L502,651 M161,707 L217,637 L144,155 L28,63 L0,105 L91,658 M164,141 L711,140 L790,35 L734,0 L84,0 L49,42"/> 
            <glyph glyph-name="F" unicode="&#x46;" horiz-adv-x="999" d=" M301,1434 L958,1434 L999,1393 L882,1301 L330,1301 L252,1406 M231,1392 L315,1287 L231,797 L166,747 L105,818 L196,1364 M814,790 L874,724 L795,651 L519,651 L538,790 M245,651 L175,727 L259,790 L522,790 L502,651 M161,707 L217,637 L144,155 L28,63 L0,105 L91,658"/> 
            <glyph glyph-name="G" unicode="&#x47;" horiz-adv-x="999" d=" M301,1434 L958,1434 L999,1393 L882,1301 L330,1301 L252,1406 M231,1392 L315,1287 L231,797 L166,747 L105,818 L196,1364 M814,790 L874,724 L795,651 L519,651 L538,790 M161,707 L217,637 L144,155 L28,63 L0,105 L91,658 M881,700 L944,630 L853,82 L811,56 L729,155 L812,638 M164,141 L711,140 L790,35 L734,0 L84,0 L49,42"/> 
            <glyph glyph-name="H" unicode="&#x48;" horiz-adv-x="1049" d=" M231,1392 L315,1287 L231,797 L166,747 L105,818 L196,1364 M1014,1378 L1049,1336 L965,804 L888,741 L832,804 L900,1289 M814,790 L874,724 L795,651 L519,651 L538,790 M245,651 L175,727 L259,790 L522,790 L502,651 M161,707 L217,637 L144,155 L28,63 L0,105 L91,658 M881,700 L944,630 L853,82 L811,56 L729,155 L812,638"/> 
            <glyph glyph-name="I" unicode="&#x49;" horiz-adv-x="999" d=" M301,1434 L958,1434 L999,1393 L882,1301 L330,1301 L252,1406 M164,141 L711,140 L790,35 L734,0 L84,0 L49,42 M461,800 L592,800 L673,1287 L540,1287 M448,640 L576,640 L499,153 L366,153"/> 
            <glyph glyph-name="J" unicode="&#x4A;" horiz-adv-x="1049" d=" M1014,1378 L1049,1336 L965,804 L888,741 L832,804 L900,1289 M161,707 L217,637 L144,155 L28,63 L0,105 L91,658 M881,700 L944,630 L853,82 L811,56 L729,155 L812,638 M164,141 L711,140 L790,35 L734,0 L84,0 L49,42"/> 
            <glyph glyph-name="K" unicode="&#x4B;" horiz-adv-x="886" d=" M231,1392 L315,1287 L231,797 L166,747 L105,818 L196,1364 M245,651 L175,727 L259,790 L522,790 L502,651 M161,707 L217,637 L144,155 L28,63 L0,105 L91,658 M886,1287 L875,1204 L697,800 L606,800 L618,883 L799,1287 M589,639 L671,639 L727,240 L713,149 L624,149 L574,552"/> 
            <glyph glyph-name="L" unicode="&#x4C;" horiz-adv-x="790" d=" M231,1392 L315,1287 L231,797 L166,747 L105,818 L196,1364 M161,707 L217,637 L144,155 L28,63 L0,105 L91,658 M164,141 L711,140 L790,35 L734,0 L84,0 L49,42"/> 
            <glyph glyph-name="M" unicode="&#x4D;" horiz-adv-x="1049" d=" M231,1392 L315,1287 L231,797 L166,747 L105,818 L196,1364 M1014,1378 L1049,1336 L965,804 L888,741 L832,804 L900,1289 M161,707 L217,637 L144,155 L28,63 L0,105 L91,658 M881,700 L944,630 L853,82 L811,56 L729,155 L812,638 M886,1287 L875,1204 L697,800 L606,800 L618,883 L799,1287 M326,1289 L408,1289 L464,890 L450,799 L361,799 L311,1202 M448,640 L576,640 L499,153 L366,153"/> 
            <glyph glyph-name="N" unicode="&#x4E;" horiz-adv-x="1049" d=" M231,1392 L315,1287 L231,797 L166,747 L105,818 L196,1364 M1014,1378 L1049,1336 L965,804 L888,741 L832,804 L900,1289 M161,707 L217,637 L144,155 L28,63 L0,105 L91,658 M881,700 L944,630 L853,82 L811,56 L729,155 L812,638 M326,1289 L408,1289 L464,890 L450,799 L361,799 L311,1202 M589,639 L671,639 L727,240 L713,149 L624,149 L574,552"/> 
            <glyph glyph-name="O" unicode="&#x4F;" horiz-adv-x="1049" d=" M301,1434 L958,1434 L999,1393 L882,1301 L330,1301 L252,1406 M231,1392 L315,1287 L231,797 L166,747 L105,818 L196,1364 M1014,1378 L1049,1336 L965,804 L888,741 L832,804 L900,1289 M161,707 L217,637 L144,155 L28,63 L0,105 L91,658 M881,700 L944,630 L853,82 L811,56 L729,155 L812,638 M164,141 L711,140 L790,35 L734,0 L84,0 L49,42"/> 
            <glyph glyph-name="P" unicode="&#x50;" horiz-adv-x="1049" d=" M301,1434 L958,1434 L999,1393 L882,1301 L330,1301 L252,1406 M231,1392 L315,1287 L231,797 L166,747 L105,818 L196,1364 M1014,1378 L1049,1336 L965,804 L888,741 L832,804 L900,1289 M814,790 L874,724 L795,651 L519,651 L538,790 M245,651 L175,727 L259,790 L522,790 L502,651 M161,707 L217,637 L144,155 L28,63 L0,105 L91,658"/> 
            <glyph glyph-name="Q" unicode="&#x51;" horiz-adv-x="1049" d=" M301,1434 L958,1434 L999,1393 L882,1301 L330,1301 L252,1406 M231,1392 L315,1287 L231,797 L166,747 L105,818 L196,1364 M1014,1378 L1049,1336 L965,804 L888,741 L832,804 L900,1289 M161,707 L217,637 L144,155 L28,63 L0,105 L91,658 M881,700 L944,630 L853,82 L811,56 L729,155 L812,638 M164,141 L711,140 L790,35 L734,0 L84,0 L49,42 M589,639 L671,639 L727,240 L713,149 L624,149 L574,552"/> 
            <glyph glyph-name="R" unicode="&#x52;" horiz-adv-x="1049" d=" M301,1434 L958,1434 L999,1393 L882,1301 L330,1301 L252,1406 M231,1392 L315,1287 L231,797 L166,747 L105,818 L196,1364 M1014,1378 L1049,1336 L965,804 L888,741 L832,804 L900,1289 M814,790 L874,724 L795,651 L519,651 L538,790 M245,651 L175,727 L259,790 L522,790 L502,651 M161,707 L217,637 L144,155 L28,63 L0,105 L91,658 M589,639 L671,639 L727,240 L713,149 L624,149 L574,552"/> 
            <glyph glyph-name="S" unicode="&#x53;" horiz-adv-x="999" d=" M301,1434 L958,1434 L999,1393 L882,1301 L330,1301 L252,1406 M231,1392 L315,1287 L231,797 L166,747 L105,818 L196,1364 M814,790 L874,724 L795,651 L519,651 L538,790 M245,651 L175,727 L259,790 L522,790 L502,651 M881,700 L944,630 L853,82 L811,56 L729,155 L812,638 M164,141 L711,140 L790,35 L734,0 L84,0 L49,42"/> 
            <glyph glyph-name="T" unicode="&#x54;" horiz-adv-x="999" d=" M301,1434 L958,1434 L999,1393 L882,1301 L330,1301 L252,1406 M461,800 L592,800 L673,1287 L540,1287 M448,640 L576,640 L499,153 L366,153"/> 
            <glyph glyph-name="U" unicode="&#x55;" horiz-adv-x="1049" d=" M231,1392 L315,1287 L231,797 L166,747 L105,818 L196,1364 M1014,1378 L1049,1336 L965,804 L888,741 L832,804 L900,1289 M161,707 L217,637 L144,155 L28,63 L0,105 L91,658 M881,700 L944,630 L853,82 L811,56 L729,155 L812,638 M164,141 L711,140 L790,35 L734,0 L84,0 L49,42"/> 
            <glyph glyph-name="V" unicode="&#x56;" horiz-adv-x="1049" d=" M1014,1378 L1049,1336 L965,804 L888,741 L832,804 L900,1289 M881,700 L944,630 L853,82 L811,56 L729,155 L812,638 M326,1289 L408,1289 L464,890 L450,799 L361,799 L311,1202 M589,639 L671,639 L727,240 L713,149 L624,149 L574,552"/> 
            <glyph glyph-name="W" unicode="&#x57;" horiz-adv-x="1049" d=" M231,1392 L315,1287 L231,797 L166,747 L105,818 L196,1364 M1014,1378 L1049,1336 L965,804 L888,741 L832,804 L900,1289 M161,707 L217,637 L144,155 L28,63 L0,105 L91,658 M881,700 L944,630 L853,82 L811,56 L729,155 L812,638 M461,800 L592,800 L673,1287 L540,1287 M589,639 L671,639 L727,240 L713,149 L624,149 L574,552 M435,639 L424,556 L246,152 L155,152 L167,235 L348,639"/> 
            <glyph glyph-name="X" unicode="&#x58;" horiz-adv-x="886" d=" M886,1287 L875,1204 L697,800 L606,800 L618,883 L799,1287 M326,1289 L408,1289 L464,890 L450,799 L361,799 L311,1202 M589,639 L671,639 L727,240 L713,149 L624,149 L574,552 M435,639 L424,556 L246,152 L155,152 L167,235 L348,639"/> 
            <glyph glyph-name="Y" unicode="&#x59;" horiz-adv-x="1049" d=" M231,1392 L315,1287 L231,797 L166,747 L105,818 L196,1364 M1014,1378 L1049,1336 L965,804 L888,741 L832,804 L900,1289 M814,790 L874,724 L795,651 L519,651 L538,790 M245,651 L175,727 L259,790 L522,790 L502,651 M448,640 L576,640 L499,153 L366,153"/> 
            <glyph glyph-name="Z" unicode="&#x5A;" horiz-adv-x="999" d=" M301,1434 L958,1434 L999,1393 L882,1301 L330,1301 L252,1406 M164,141 L711,140 L790,35 L734,0 L84,0 L49,42 M886,1287 L875,1204 L697,800 L606,800 L618,883 L799,1287 M435,639 L424,556 L246,152 L155,152 L167,235 L348,639"/> 
            <glyph glyph-name="[" unicode="&#x5B;" horiz-adv-x="620" d=" M330,1301 L252,1406 L301,1434 L620,1434 L598,1301 M231,1392 L315,1287 L231,797 L166,747 L105,818 L196,1364 M161,707 L217,637 L144,155 L28,63 L0,105 L91,658 M84,0 L49,42 L164,141 L427,140 L402,0"/> 
            <glyph glyph-name="\" unicode="&#x5C;" horiz-adv-x="727" d=" M326,1289 L408,1289 L464,890 L450,799 L361,799 L311,1202 M589,639 L671,639 L727,240 L713,149 L624,149 L574,552"/> 
            <glyph glyph-name="]" unicode="&#x5D;" horiz-adv-x="1049" d=" M958,1434 L999,1393 L882,1301 L614,1301 L635,1434 M1014,1378 L1049,1336 L965,804 L888,741 L832,804 L900,1289 M881,700 L944,630 L853,82 L811,56 L729,155 L812,638 M711,140 L790,35 L734,0 L414,0 L439,140"/> 
            <glyph glyph-name="_" unicode="&#x5F;" horiz-adv-x="790" d=" M711,140 L790,35 L734,0 L414,0 L439,140 M84,0 L49,42 L164,141 L427,140 L402,0"/> 
            <glyph glyph-name="`" unicode="&#x60;" horiz-adv-x="464" d=" M326,1289 L408,1289 L464,890 L450,799 L361,799 L311,1202"/> 
            <glyph glyph-name="a" unicode="&#x61;" horiz-adv-x="1049" d=" M301,1434 L958,1434 L999,1393 L882,1301 L330,1301 L252,1406 M1014,1378 L1049,1336 L965,804 L888,741 L832,804 L900,1289 M814,790 L874,724 L795,651 L519,651 L538,790 M245,651 L175,727 L259,790 L522,790 L502,651 M161,707 L217,637 L144,155 L28,63 L0,105 L91,658 M881,700 L944,630 L853,82 L811,56 L729,155 L812,638 M164,141 L711,140 L790,35 L734,0 L84,0 L49,42"/> 
            <glyph glyph-name="b" unicode="&#x62;" horiz-adv-x="944" d=" M231,1392 L315,1287 L231,797 L166,747 L105,818 L196,1364 M814,790 L874,724 L795,651 L519,651 L538,790 M245,651 L175,727 L259,790 L522,790 L502,651 M161,707 L217,637 L144,155 L28,63 L0,105 L91,658 M881,700 L944,630 L853,82 L811,56 L729,155 L812,638 M164,141 L711,140 L790,35 L734,0 L84,0 L49,42"/> 
            <glyph glyph-name="c" unicode="&#x63;" horiz-adv-x="874" d=" M814,790 L874,724 L795,651 L519,651 L538,790 M245,651 L175,727 L259,790 L522,790 L502,651 M161,707 L217,637 L144,155 L28,63 L0,105 L91,658 M164,141 L711,140 L790,35 L734,0 L84,0 L49,42"/> 
            <glyph glyph-name="d" unicode="&#x64;" horiz-adv-x="1049" d=" M1014,1378 L1049,1336 L965,804 L888,741 L832,804 L900,1289 M814,790 L874,724 L795,651 L519,651 L538,790 M245,651 L175,727 L259,790 L522,790 L502,651 M161,707 L217,637 L144,155 L28,63 L0,105 L91,658 M881,700 L944,630 L853,82 L811,56 L729,155 L812,638 M164,141 L711,140 L790,35 L734,0 L84,0 L49,42"/> 
            <glyph glyph-name="e" unicode="&#x65;" horiz-adv-x="1049" d=" M301,1434 L958,1434 L999,1393 L882,1301 L330,1301 L252,1406 M231,1392 L315,1287 L231,797 L166,747 L105,818 L196,1364 M1014,1378 L1049,1336 L965,804 L888,741 L832,804 L900,1289 M814,790 L874,724 L795,651 L519,651 L538,790 M245,651 L175,727 L259,790 L522,790 L502,651 M161,707 L217,637 L144,155 L28,63 L0,105 L91,658 M164,141 L711,140 L790,35 L734,0 L84,0 L49,42"/> 
            <glyph glyph-name="f" unicode="&#x66;" horiz-adv-x="999" d=" M301,1434 L958,1434 L999,1393 L882,1301 L330,1301 L252,1406 M231,1392 L315,1287 L231,797 L166,747 L105,818 L196,1364 M814,790 L874,724 L795,651 L519,651 L538,790 M245,651 L175,727 L259,790 L522,790 L502,651 M161,707 L217,637 L144,155 L28,63 L0,105 L91,658"/> 
            <glyph glyph-name="g" unicode="&#x67;" horiz-adv-x="1049" d=" M301,1434 L958,1434 L999,1393 L882,1301 L330,1301 L252,1406 M231,1392 L315,1287 L231,797 L166,747 L105,818 L196,1364 M1014,1378 L1049,1336 L965,804 L888,741 L832,804 L900,1289 M814,790 L874,724 L795,651 L519,651 L538,790 M245,651 L175,727 L259,790 L522,790 L502,651 M881,700 L944,630 L853,82 L811,56 L729,155 L812,638 M164,141 L711,140 L790,35 L734,0 L84,0 L49,42"/> 
            <glyph glyph-name="h" unicode="&#x68;" horiz-adv-x="944" d=" M231,1392 L315,1287 L231,797 L166,747 L105,818 L196,1364 M814,790 L874,724 L795,651 L519,651 L538,790 M245,651 L175,727 L259,790 L522,790 L502,651 M161,707 L217,637 L144,155 L28,63 L0,105 L91,658 M881,700 L944,630 L853,82 L811,56 L729,155 L812,638"/> 
            <glyph glyph-name="i" unicode="&#x69;" horiz-adv-x="315" d=" M231,1392 L315,1287 L231,797 L166,747 L105,818 L196,1364 M161,707 L217,637 L144,155 L28,63 L0,105 L91,658"/> 
            <glyph glyph-name="j" unicode="&#x6A;" horiz-adv-x="1049" d=" M1014,1378 L1049,1336 L965,804 L888,741 L832,804 L900,1289 M161,707 L217,637 L144,155 L28,63 L0,105 L91,658 M881,700 L944,630 L853,82 L811,56 L729,155 L812,638 M164,141 L711,140 L790,35 L734,0 L84,0 L49,42"/> 
            <glyph glyph-name="k" unicode="&#x6B;" horiz-adv-x="886" d=" M231,1392 L315,1287 L231,797 L166,747 L105,818 L196,1364 M245,651 L175,727 L259,790 L522,790 L502,651 M161,707 L217,637 L144,155 L28,63 L0,105 L91,658 M886,1287 L875,1204 L697,800 L606,800 L618,883 L799,1287 M589,639 L671,639 L727,240 L713,149 L624,149 L574,552"/> 
            <glyph glyph-name="l" unicode="&#x6C;" horiz-adv-x="790" d=" M231,1392 L315,1287 L231,797 L166,747 L105,818 L196,1364 M161,707 L217,637 L144,155 L28,63 L0,105 L91,658 M164,141 L711,140 L790,35 L734,0 L84,0 L49,42"/> 
            <glyph glyph-name="m" unicode="&#x6D;" horiz-adv-x="944" d=" M814,790 L874,724 L795,651 L519,651 L538,790 M245,651 L175,727 L259,790 L522,790 L502,651 M161,707 L217,637 L144,155 L28,63 L0,105 L91,658 M881,700 L944,630 L853,82 L811,56 L729,155 L812,638 M448,640 L576,640 L499,153 L366,153"/> 
            <glyph glyph-name="n" unicode="&#x6E;" horiz-adv-x="944" d=" M814,790 L874,724 L795,651 L519,651 L538,790 M245,651 L175,727 L259,790 L522,790 L502,651 M161,707 L217,637 L144,155 L28,63 L0,105 L91,658 M881,700 L944,630 L853,82 L811,56 L729,155 L812,638"/> 
            <glyph glyph-name="o" unicode="&#x6F;" horiz-adv-x="944" d=" M814,790 L874,724 L795,651 L519,651 L538,790 M245,651 L175,727 L259,790 L522,790 L502,651 M161,707 L217,637 L144,155 L28,63 L0,105 L91,658 M881,700 L944,630 L853,82 L811,56 L729,155 L812,638 M164,141 L711,140 L790,35 L734,0 L84,0 L49,42"/> 
            <glyph glyph-name="p" unicode="&#x70;" horiz-adv-x="1049" d=" M301,1434 L958,1434 L999,1393 L882,1301 L330,1301 L252,1406 M231,1392 L315,1287 L231,797 L166,747 L105,818 L196,1364 M1014,1378 L1049,1336 L965,804 L888,741 L832,804 L900,1289 M814,790 L874,724 L795,651 L519,651 L538,790 M245,651 L175,727 L259,790 L522,790 L502,651 M161,707 L217,637 L144,155 L28,63 L0,105 L91,658"/> 
            <glyph glyph-name="q" unicode="&#x71;" horiz-adv-x="1049" d=" M301,1434 L958,1434 L999,1393 L882,1301 L330,1301 L252,1406 M231,1392 L315,1287 L231,797 L166,747 L105,818 L196,1364 M1014,1378 L1049,1336 L965,804 L888,741 L832,804 L900,1289 M814,790 L874,724 L795,651 L519,651 L538,790 M245,651 L175,727 L259,790 L522,790 L502,651 M881,700 L944,630 L853,82 L811,56 L729,155 L812,638"/> 
            <glyph glyph-name="r" unicode="&#x72;" horiz-adv-x="874" d=" M814,790 L874,724 L795,651 L519,651 L538,790 M245,651 L175,727 L259,790 L522,790 L502,651 M161,707 L217,637 L144,155 L28,63 L0,105 L91,658"/> 
            <glyph glyph-name="s" unicode="&#x73;" horiz-adv-x="999" d=" M301,1434 L958,1434 L999,1393 L882,1301 L330,1301 L252,1406 M231,1392 L315,1287 L231,797 L166,747 L105,818 L196,1364 M814,790 L874,724 L795,651 L519,651 L538,790 M245,651 L175,727 L259,790 L522,790 L502,651 M881,700 L944,630 L853,82 L811,56 L729,155 L812,638 M164,141 L711,140 L790,35 L734,0 L84,0 L49,42"/> 
            <glyph glyph-name="t" unicode="&#x74;" horiz-adv-x="874" d=" M231,1392 L315,1287 L231,797 L166,747 L105,818 L196,1364 M814,790 L874,724 L795,651 L519,651 L538,790 M245,651 L175,727 L259,790 L522,790 L502,651 M161,707 L217,637 L144,155 L28,63 L0,105 L91,658 M164,141 L711,140 L790,35 L734,0 L84,0 L49,42"/> 
            <glyph glyph-name="u" unicode="&#x75;" horiz-adv-x="944" d=" M161,707 L217,637 L144,155 L28,63 L0,105 L91,658 M881,700 L944,630 L853,82 L811,56 L729,155 L812,638 M164,141 L711,140 L790,35 L734,0 L84,0 L49,42"/> 
            <glyph glyph-name="v" unicode="&#x76;" horiz-adv-x="1049" d=" M1014,1378 L1049,1336 L965,804 L888,741 L832,804 L900,1289 M881,700 L944,630 L853,82 L811,56 L729,155 L812,638 M326,1289 L408,1289 L464,890 L450,799 L361,799 L311,1202 M589,639 L671,639 L727,240 L713,149 L624,149 L574,552"/> 
            <glyph glyph-name="w" unicode="&#x77;" horiz-adv-x="944" d=" M161,707 L217,637 L144,155 L28,63 L0,105 L91,658 M881,700 L944,630 L853,82 L811,56 L729,155 L812,638 M164,141 L711,140 L790,35 L734,0 L84,0 L49,42 M448,640 L576,640 L499,153 L366,153"/> 
            <glyph glyph-name="x" unicode="&#x78;" horiz-adv-x="886" d=" M886,1287 L875,1204 L697,800 L606,800 L618,883 L799,1287 M326,1289 L408,1289 L464,890 L450,799 L361,799 L311,1202 M589,639 L671,639 L727,240 L713,149 L624,149 L574,552 M435,639 L424,556 L246,152 L155,152 L167,235 L348,639"/> 
            <glyph glyph-name="y" unicode="&#x79;" horiz-adv-x="1049" d=" M231,1392 L315,1287 L231,797 L166,747 L105,818 L196,1364 M1014,1378 L1049,1336 L965,804 L888,741 L832,804 L900,1289 M814,790 L874,724 L795,651 L519,651 L538,790 M245,651 L175,727 L259,790 L522,790 L502,651 M881,700 L944,630 L853,82 L811,56 L729,155 L812,638 M164,141 L711,140 L790,35 L734,0 L84,0 L49,42"/> 
            <glyph glyph-name="z" unicode="&#x7A;" horiz-adv-x="999" d=" M301,1434 L958,1434 L999,1393 L882,1301 L330,1301 L252,1406 M164,141 L711,140 L790,35 L734,0 L84,0 L49,42 M886,1287 L875,1204 L697,800 L606,800 L618,883 L799,1287 M435,639 L424,556 L246,152 L155,152 L167,235 L348,639"/> 
            <glyph glyph-name="{" unicode="&#x7B;" horiz-adv-x="999" d=" M958,1434 L999,1393 L882,1301 L614,1301 L635,1434 M245,651 L175,727 L259,790 L522,790 L502,651 M711,140 L790,35 L734,0 L414,0 L439,140 M461,800 L592,800 L673,1287 L540,1287 M448,640 L576,640 L499,153 L366,153"/> 
            <glyph glyph-name="|" unicode="&#x7C;" horiz-adv-x="587" d=" M427,1577 L587,1577 L587,-418 L427,-418"/> 
            <glyph glyph-name="}" unicode="&#x7D;" horiz-adv-x="874" d=" M330,1301 L252,1406 L301,1434 L620,1434 L598,1301 M814,790 L874,724 L795,651 L519,651 L538,790 M84,0 L49,42 L164,141 L427,140 L402,0 M461,800 L592,800 L673,1287 L540,1287 M448,640 L576,640 L499,153 L366,153"/> 
            <glyph glyph-name="~" unicode="&#x7E;" horiz-adv-x="923" d=" M923,878 L923,722 Q860,650 801,624.5 Q742,599 685,599 Q625,599 507.5,647.5 Q390,696 331,696 Q280,696 223.5,668 Q167,640 94,556 L94,712 Q158,785 217,811 Q276,837 331,837 Q395,837 512.5,787.5 Q630,738 685,738 Q737,738 793.5,766 Q850,794 923,878"/> 
            <glyph glyph-name="ı" unicode="&#x131;" horiz-adv-x="474" d=" M328,223 Q328,50 428,50 L474,50 L474,0 L32,0 L32,50 L78,50 Q178,50 178,223 L178,655 Q178,732 67,732 L19,732 L19,776 Q241,845 280,958 L328,958"/> 
            <glyph glyph-name="ˆ" unicode="&#x2C6;" horiz-adv-x="803" d=" M221,1079 L453,1434 L571,1434 L803,1079 L745,1079 L512,1295 L279,1079"/> 
            <glyph glyph-name="ˇ" unicode="&#x2C7;" horiz-adv-x="803" d=" M221,1434 L279,1434 L512,1220 L745,1434 L803,1434 L571,1078 L453,1078"/> 
            <glyph glyph-name="ˉ" unicode="&#x2C9;" horiz-adv-x="770" d=" M254,1195 L254,1320 L770,1320 L770,1195"/> 
            <glyph glyph-name="˘" unicode="&#x2D8;" horiz-adv-x="803" d=" M219,1349 L270,1349 Q287,1276 345,1242 Q403,1208 512,1208 Q621,1208 678,1241.5 Q735,1275 752,1349 L803,1349 Q783,1216 709,1147.5 Q635,1079 512,1079 Q390,1079 315,1148 Q240,1217 219,1349"/> 
            <glyph glyph-name="˙" unicode="&#x2D9;" horiz-adv-x="623" d=" M422,1289 L491,1361 Q497,1367 504,1370 Q511,1373 518,1373 Q524,1373 530.5,1370 Q537,1367 543,1361 L614,1285 Q619,1281 621,1275 Q623,1269 623,1261 Q622,1252 620,1246 Q618,1240 612,1234 L541,1158 Q529,1147 525,1144.5 Q521,1142 518,1142 Q508,1142 501.5,1144.5 Q495,1147 491,1153 L416,1240 Q412,1244 410,1249.5 Q408,1255 408,1263 Q408,1269 411,1275.5 Q414,1282 422,1289"/> 
            <glyph glyph-name="˚" unicode="&#x2DA;" horiz-adv-x="690" d=" M411,1257 Q411,1215 440,1186 Q469,1157 511,1157 Q553,1157 582,1186 Q611,1215 611,1257 Q611,1297 581.5,1326.5 Q552,1356 511,1356 Q470,1356 440.5,1326.5 Q411,1297 411,1257 M335,1257 Q335,1332 386,1383 Q437,1434 511,1434 Q587,1434 638.5,1382.5 Q690,1331 690,1257 Q690,1182 638.5,1130.5 Q587,1079 511,1079 Q437,1079 386,1130.5 Q335,1182 335,1257"/> 
            <glyph glyph-name="˛" unicode="&#x2DB;" horiz-adv-x="737" d=" M640,0 Q569,-62 529.5,-119.5 Q490,-177 490,-232 Q490,-279 517,-307 Q544,-335 590,-335 Q630,-335 659.5,-319.5 Q689,-304 709,-271 L737,-287 Q701,-350 646.5,-384 Q592,-418 527,-418 Q457,-418 413,-382.5 Q369,-347 369,-292 Q369,-216 429.5,-135.5 Q490,-55 591,0"/> 
            <glyph glyph-name="˜" unicode="&#x2DC;" horiz-adv-x="999" d=" M958,1434 L999,1393 L882,1301 L614,1301 L635,1434 M330,1301 L252,1406 L301,1434 L620,1434 L598,1301"/> 
            <glyph glyph-name="˝" unicode="&#x2DD;" horiz-adv-x="806" d=" M217,1079 L361,1352 Q385,1396 406.5,1415 Q428,1434 453,1434 Q481,1434 501,1414 Q521,1394 521,1367 Q521,1351 510.5,1332 Q500,1313 480,1291 L275,1079 M502,1079 L646,1352 Q670,1396 691.5,1415 Q713,1434 738,1434 Q766,1434 786,1414 Q806,1394 806,1367 Q806,1351 795.5,1332 Q785,1313 765,1291 L560,1079"/> 
            <glyph glyph-name=";" unicode="&#x37E;" horiz-adv-x="379" d=" M145,859 L227,943 Q242,957 256,957 Q269,957 287,941 L367,855 Q379,839 379,826 Q379,811 365,795 L285,707 Q265,687 256,687 Q240,687 227,701 L139,802 Q129,815 129,828 Q129,843 145,859 M238,258 Q282,258 326.5,192.5 Q371,127 371,41 Q371,-68 300,-185.5 Q229,-303 161,-303 L161,-260 Q234,-217 248,-70 Q248,49 119,91 L119,133"/> 
            <glyph glyph-name="–" unicode="&#x2013;" horiz-adv-x="1052" d=" M56,419 L56,539 L1052,539 L1052,419"/> 
            <glyph glyph-name="—" unicode="&#x2014;" horiz-adv-x="2048" d=" M0,419 L0,539 L2048,539 L2048,419"/> 
            <glyph glyph-name="‘" unicode="&#x2018;" horiz-adv-x="438" d=" M319,1016 Q275,1016 230.5,1081.5 Q186,1147 186,1233 Q186,1342 257,1459.5 Q328,1577 396,1577 L396,1534 Q323,1491 309,1344 Q309,1225 438,1183 L438,1141"/> 
            <glyph glyph-name="’" unicode="&#x2019;" horiz-adv-x="371" d=" M238,1577 Q282,1577 326.5,1511.5 Q371,1446 371,1360 Q371,1251 300,1133.5 Q229,1016 161,1016 L161,1059 Q234,1102 248,1249 Q248,1368 119,1410 L119,1452"/> 
            <glyph glyph-name="‚" unicode="&#x201A;" horiz-adv-x="371" d=" M238,281 Q282,281 326.5,215.5 Q371,150 371,64 Q371,-45 300,-162.5 Q229,-280 161,-280 L161,-237 Q234,-194 248,-47 Q248,72 119,114 L119,156"/> 
            <glyph glyph-name="“" unicode="&#x201C;" horiz-adv-x="791" d=" M319,1016 Q275,1016 230.5,1081.5 Q186,1147 186,1233 Q186,1342 257,1459.5 Q328,1577 396,1577 L396,1534 Q323,1491 309,1344 Q309,1225 438,1183 L438,1141 M672,1016 Q628,1016 583.5,1081.5 Q539,1147 539,1233 Q539,1342 610,1459.5 Q681,1577 749,1577 L749,1534 Q676,1491 662,1344 Q662,1225 791,1183 L791,1141"/> 
            <glyph glyph-name="”" unicode="&#x201D;" horiz-adv-x="724" d=" M238,1577 Q282,1577 326.5,1511.5 Q371,1446 371,1360 Q371,1251 300,1133.5 Q229,1016 161,1016 L161,1059 Q234,1102 248,1249 Q248,1368 119,1410 L119,1452 M591,1577 Q635,1577 679.5,1511.5 Q724,1446 724,1360 Q724,1251 653,1133.5 Q582,1016 514,1016 L514,1059 Q587,1102 601,1249 Q601,1368 472,1410 L472,1452"/> 
            <glyph glyph-name="„" unicode="&#x201E;" horiz-adv-x="724" d=" M238,281 Q282,281 326.5,215.5 Q371,150 371,64 Q371,-45 300,-162.5 Q229,-280 161,-280 L161,-237 Q234,-194 248,-47 Q248,72 119,114 L119,156 M591,281 Q635,281 679.5,215.5 Q724,150 724,64 Q724,-45 653,-162.5 Q582,-280 514,-280 L514,-237 Q587,-194 601,-47 Q601,72 472,114 L472,156"/> 
            <glyph glyph-name="†" unicode="&#x2020;" horiz-adv-x="944" d=" M486,1022 Q478,1119 432,1200 Q375,1301 375,1329 Q375,1378 411,1407.5 Q447,1437 507,1437 Q564,1437 601.5,1409.5 Q639,1382 639,1338 Q639,1306 584,1201 Q538,1116 529,1022 Q625,1030 706,1076 Q807,1133 835,1133 Q884,1133 914,1097 Q944,1061 944,1001 Q944,944 916.5,906.5 Q889,869 844,869 Q812,869 708,924 Q623,970 529,981 Q537,805 639,704 Q533,244 527,-270 L489,-270 Q483,244 375,704 Q477,805 486,981 Q390,971 308,926 Q207,869 179,869 Q130,869 100.5,905 Q71,941 71,1001 Q71,1058 98.5,1095.5 Q126,1133 170,1133 Q202,1133 307,1077 Q392,1031 486,1022"/> 
            <glyph glyph-name="‡" unicode="&#x2021;" horiz-adv-x="943" d=" M528,186 Q622,197 707,243 Q811,298 843,298 Q888,298 915.5,260.5 Q943,223 943,166 Q943,106 913,70 Q883,34 834,34 Q806,34 705,91 Q624,137 528,145 Q537,51 583,-34 Q638,-139 638,-171 Q638,-215 600.5,-242.5 Q563,-270 506,-270 Q446,-270 410,-240.5 Q374,-211 374,-162 Q374,-134 431,-33 Q477,48 485,145 Q391,136 306,90 Q201,34 169,34 Q125,34 97.5,71.5 Q70,109 70,166 Q70,226 99.5,262 Q129,298 178,298 Q206,298 307,241 Q389,196 485,186 Q476,412 374,584 Q476,755 485,981 Q389,971 307,926 Q206,869 178,869 Q129,869 99.5,905 Q70,941 70,1001 Q70,1058 97.5,1095.5 Q125,1133 169,1133 Q201,1133 306,1077 Q391,1031 485,1022 Q477,1119 431,1200 Q374,1301 374,1329 Q374,1378 410,1407.5 Q446,1437 506,1437 Q563,1437 600.5,1409.5 Q638,1382 638,1338 Q638,1306 583,1201 Q537,1116 528,1022 Q624,1030 705,1076 Q806,1133 834,1133 Q883,1133 913,1097 Q943,1061 943,1001 Q943,944 915.5,906.5 Q888,869 843,869 Q811,869 707,924 Q622,970 528,981 Q536,755 638,584 Q536,412 528,186"/> 
            <glyph glyph-name="•" unicode="&#x2022;" horiz-adv-x="808" d=" M216,718 Q216,841 303,927 Q390,1013 513,1013 Q635,1013 721.5,926.5 Q808,840 808,718 Q808,596 720.5,508.5 Q633,421 511,421 Q388,421 302,508 Q216,595 216,718"/> 
            <glyph glyph-name="…" unicode="&#x2026;" horiz-adv-x="1745" d=" M145,167 L227,251 Q242,265 256,265 Q269,265 287,249 L367,163 Q379,147 379,134 Q379,119 365,103 L285,15 Q265,-5 256,-5 Q240,-5 227,9 L139,110 Q129,123 129,136 Q129,151 145,167 M828,167 L910,251 Q925,265 939,265 Q952,265 970,249 L1050,163 Q1062,147 1062,134 Q1062,119 1048,103 L968,15 Q948,-5 939,-5 Q923,-5 910,9 L822,110 Q812,123 812,136 Q812,151 828,167 M1511,167 L1593,251 Q1608,265 1622,265 Q1635,265 1653,249 L1733,163 Q1745,147 1745,134 Q1745,119 1731,103 L1651,15 Q1631,-5 1622,-5 Q1606,-5 1593,9 L1505,110 Q1495,123 1495,136 Q1495,151 1511,167"/> 
            <glyph glyph-name="‹" unicode="&#x2039;" horiz-adv-x="530" d=" M174,479 L516,782 L530,782 L530,745 L325,479 L530,213 L530,176 L516,176"/> 
            <glyph glyph-name="›" unicode="&#x203A;" horiz-adv-x="457" d=" M115,176 L101,176 L101,213 L306,479 L101,745 L101,782 L115,782 L457,479"/> 
            <glyph glyph-name="⁄" unicode="&#x2044;" horiz-adv-x="682" d=" M-342,-29 L598,1432 L682,1432 L-256,-29"/> 
            <glyph glyph-name="₣" unicode="&#x20A3;" horiz-adv-x="1066" d=" M247,357 L53,357 L53,417 L247,417 L247,1149 Q247,1384 144,1384 L48,1384 L48,1434 L963,1434 L1066,1203 L1017,1203 Q958,1385 827,1385 L511,1384 Q409,1384 409,1149 L409,797 L770,797 Q870,797 870,860 L870,918 L920,918 L920,576 L870,576 L870,636 Q870,698 770,698 L409,698 L409,417 L603,417 L603,357 L409,357 L409,285 Q409,50 511,50 L608,50 L608,0 L48,0 L48,50 L144,50 Q247,50 247,285"/> 
            <glyph glyph-name="₤" unicode="&#x20A4;" horiz-adv-x="936" d=" M748,1347 Q676,1378 588,1378 L586,1378 Q486,1378 396,1277 Q312,1184 312,1036 Q312,1021 313,1006 Q313,900 346,793 L726,793 L726,733 L366,733 Q378,703 392,673 L744,673 L744,613 L423,613 Q458,550 458,475 Q458,314 296,100 L698,100 Q828,100 887,232 L936,231 L833,0 L114,0 L115,50 Q302,288 302,468 Q302,545 268,611 L266,613 L94,613 L94,673 L237,673 Q223,704 211,733 L76,733 L76,793 L189,793 Q153,900 153,986 Q153,1212 276.5,1333 Q400,1454 587,1454 Q662,1454 772.5,1440 Q883,1426 883,1406 L883,1245 L825,1245 Q820,1306 748,1347"/> 
            <glyph glyph-name="₧" unicode="&#x20A7;" horiz-adv-x="1967" d=" M409,1384 L409,722 Q412,713 416,705 Q457,603 524,552 Q581,508 640,508 Q650,508 659,509 Q727,517 786,584 Q845,651 873,761 Q895,848 895,940 Q895,964 894,987 Q887,1103 844.5,1205.5 Q802,1308 736,1350 Q680,1385 624,1385 Q614,1385 603,1384 M1496,908 L1317,908 L1317,223 Q1317,142 1351,104 Q1379,73 1432,67 L1361,259 L1410,260 Q1465,130 1524,86 Q1581,42 1651,42 L1658,42 Q1750,42 1809,94 Q1868,147 1868,230 Q1868,332 1609,456 Q1508,508 1465,568 Q1422,628 1422,713 Q1422,834 1495,907 M1039,910 Q1032,809 991,716 Q941,602 850,538.5 Q759,475 660,475 Q560,475 469,539 Q436,561 409,590 L409,285 Q409,50 511,50 L608,50 L608,0 L48,0 L48,50 L144,50 Q247,50 247,285 L247,1149 Q247,1384 144,1384 L48,1384 L48,1434 L666,1434 Q758,1432 847,1372 Q938,1310 990,1195 Q1040,1082 1041,958 L1051,958 Q1267,958 1267,1313 L1317,1313 L1317,958 L1576,958 Q1618,977 1686,978 L1688,978 Q1742,978 1821.5,964.5 Q1901,951 1901,931 L1901,772 L1859,772 Q1855,838 1793.5,880 Q1732,922 1660,922 Q1596,922 1557.5,885.5 Q1519,849 1519,789 Q1519,681 1754,569 Q1876,514 1921.5,451.5 Q1967,389 1967,298 Q1967,158 1884,67 Q1782,-17 1656,-19 Q1598,-19 1551,-8 Q1523,-2 1495,-2 Q1477,-2 1459,-5 Q1431,-10 1400,-10 Q1276,-10 1226.5,47 Q1177,104 1169,223 L1168,223 L1168,910"/> 
            <glyph glyph-name="€" unicode="&#x20AC;" horiz-adv-x="999" d=" M958,1434 L999,1393 L882,1301 L614,1301 L635,1434 M814,790 L874,724 L795,651 L519,651 L538,790 M245,651 L175,727 L259,790 L522,790 L502,651 M711,140 L790,35 L734,0 L414,0 L439,140 M461,800 L592,800 L673,1287 L540,1287 M448,640 L576,640 L499,153 L366,153"/> 
            <glyph glyph-name="∂" unicode="&#x2202;" horiz-adv-x="937" d=" M232,537 Q232,496 237,458 Q251,336 298.5,228 Q346,120 417,63 Q481,10 545,10 Q551,10 558,11 Q628,16 685.5,81.5 Q743,147 766,261 Q782,334 782,410 Q782,452 777,495 Q763,617 714.5,726.5 Q666,836 595,892 Q530,942 467,942 L456,942 Q388,937 330,872.5 Q272,808 248,694 Q232,610 232,537 M937,477 Q937,345 880.5,226 Q824,107 721.5,41 Q619,-25 507,-25 Q395,-25 292.5,41 Q190,107 133.5,226 Q77,345 77,477 Q77,608 135,728 Q193,848 296,913 Q399,978 507,978 Q616,978 719,913 Q748,895 773,872 Q689,1107 539.5,1249 Q390,1391 213,1404 L213,1459 Q519,1459 728,1174 Q937,889 937,477"/> 
            <glyph glyph-name="∆" unicode="&#x2206;" horiz-adv-x="1073" d=" M514,1195 L108,123 L909,123 M547,1434 L1073,0 L6,0"/> 
            <glyph glyph-name="∏" unicode="&#x220F;" horiz-adv-x="1467" d=" M511,1384 Q409,1384 409,1149 L409,-132 Q409,-367 511,-367 L608,-367 L608,-418 L48,-418 L48,-367 L144,-367 Q247,-367 247,-132 L247,1149 Q247,1384 144,1384 L48,1384 L48,1434 L1467,1434 L1467,1384 L1370,1384 Q1268,1384 1268,1149 L1268,-132 Q1268,-367 1370,-367 L1467,-367 L1467,-417 L907,-417 L907,-367 L1003,-367 Q1106,-367 1106,-132 L1106,1149 Q1106,1384 1003,1384"/> 
            <glyph glyph-name="∑" unicode="&#x2211;" horiz-adv-x="1144" d=" M1059,548 L271,-366 L906,-366 Q1036,-366 1095,-184 L1144,-184 L1041,-416 L120,-416 L120,-366 Q182,-366 226,-313 L889,468 L226,1327 Q182,1384 120,1384 L120,1434 L1041,1434 L1144,1202 L1095,1202 Q1036,1384 906,1384 L421,1384"/> 
            <glyph glyph-name="−" unicode="&#x2212;" horiz-adv-x="874" d=" M814,790 L874,724 L795,651 L519,651 L538,790 M245,651 L175,727 L259,790 L522,790 L502,651"/> 
            <glyph glyph-name="∕" unicode="&#x2215;" horiz-adv-x="682" d=" M-342,-29 L598,1432 L682,1432 L-256,-29"/> 
            <glyph glyph-name="∞" unicode="&#x221E;" horiz-adv-x="951" d=" M439,755 Q424,858 365,888 Q319,910 281,910 Q269,910 258,908 Q209,898 165.5,863.5 Q122,829 100,779 Q80,733 80,689 L80,681 Q82,633 107.5,592 Q133,551 179,534 Q208,523 240,523 Q256,523 273,526 Q320,536 363.5,569.5 Q407,603 439,755 M466,687 Q478,591 560,534 Q629,486 683,486 Q694,486 704,488 Q766,500 821.5,540 Q877,580 906,641 Q932,695 932,749 L932,760 Q930,820 896.5,868.5 Q863,917 805,937 Q768,950 729,950 Q707,950 685,946 Q618,937 558,884 Q498,831 466,687 M450,827 Q459,862 471,896 Q505,984 566,1033 Q627,1082 694,1082 Q761,1082 822,1034 Q883,986 917,899 Q951,812 951,717 Q951,622 917,535 Q883,448 822,400 Q761,352 694,352 Q627,352 566,401 Q505,450 471,537 Q459,572 450,607 Q445,586 438,566 Q411,493 364,453 Q317,413 265,413 Q213,413 165,454 Q117,495 91.5,567.5 Q66,640 66,717 Q66,793 91.5,866 Q117,939 165,980 Q213,1021 265,1021 Q317,1021 364,981 Q411,941 438,869 Q445,848 450,827"/> 
            <glyph glyph-name="∫" unicode="&#x222B;" horiz-adv-x="725" d=" M-12,-281 Q-72,-281 -72,-252 L-72,-93 L-36,-93 Q-35,-136 -1.5,-157.5 Q32,-179 62,-179 L63,-179 Q145,-179 178,-17 Q210,145 218,299 L288,1033 L296,1095 Q323,1333 431,1524.5 Q539,1716 665,1716 Q725,1716 725,1687 L725,1528 L689,1528 Q688,1571 654,1592.5 Q620,1614 591,1614 Q520,1614 475,1458.5 Q430,1303 426,1095 L353,328 Q333,97 222.5,-92 Q112,-281 -12,-281"/> 
            <glyph glyph-name="≈" unicode="&#x2248;" horiz-adv-x="923" d=" M923,1053 L923,897 Q860,825 801,799.5 Q742,774 685,774 Q625,774 507.5,822.5 Q390,871 331,871 Q280,871 223.5,843 Q167,815 94,731 L94,887 Q158,960 217,986 Q276,1012 331,1012 Q395,1012 512.5,962.5 Q630,913 685,913 Q737,913 793.5,941 Q850,969 923,1053 M923,705 L923,549 Q860,477 801,451.5 Q742,426 685,426 Q625,426 507.5,474.5 Q390,523 331,523 Q280,523 223.5,495 Q167,467 94,383 L94,539 Q158,612 217,638 Q276,664 331,664 Q395,664 512.5,614.5 Q630,565 685,565 Q737,565 793.5,593 Q850,621 923,705"/> 
            <glyph glyph-name="≤" unicode="&#x2264;" horiz-adv-x="927" d=" M927,1074 L302,715 L927,360 L927,193 L87,674 L87,757 L927,1241 M87,1 L87,141 L926,141 L927,140 L927,1"/> 
            <glyph glyph-name="≥" unicode="&#x2265;" horiz-adv-x="927" d=" M87,1241 L927,757 L927,674 L87,193 L87,360 L712,715 L87,1074 M87,2 L87,142 L926,142 L927,141 L927,2"/> 
            <glyph glyph-name=" " unicode="&#x20;" horiz-adv-x="457" d=" M313,328 L264,1364 Q264,1410 285,1433 Q306,1456 347,1456 Q389,1456 409.5,1433 Q430,1410 430,1364 L350,328 M223,167 L305,251 Q320,265 334,265 Q347,265 365,249 L445,163 Q457,147 457,134 Q457,119 443,103 L363,15 Q343,-5 334,-5 Q318,-5 305,9 L217,110 Q207,123 207,136 Q207,151 223,167"/> 
            <glyph glyph-name="!" unicode="&#x21;" horiz-adv-x="1049" d=" M1014,1378 L1049,1336 L965,804 L888,741 L832,804 L900,1289 M461,800 L592,800 L673,1287 L540,1287"/> 
            <glyph glyph-name="&quot;" unicode="&#x22;" horiz-adv-x="1219" d=" M596,859 L511,569 L753,569 L839,859 M673,1434 L766,1434 L625,957 L867,957 L1009,1434 L1101,1434 L960,957 L1219,957 L1190,860 L931,860 L848,570 L1127,570 L1097,472 L817,472 L677,0 L585,0 L724,472 L484,472 L342,0 L250,0 L390,472 L117,472 L147,570 L418,570 L504,860 L209,860 L238,957 L533,957"/> 
            <glyph glyph-name="#" unicode="&#x23;" horiz-adv-x="999" d=" M301,1434 L958,1434 L999,1393 L882,1301 L330,1301 L252,1406 M231,1392 L315,1287 L231,797 L166,747 L105,818 L196,1364 M814,790 L874,724 L795,651 L519,651 L538,790 M245,651 L175,727 L259,790 L522,790 L502,651 M881,700 L944,630 L853,82 L811,56 L729,155 L812,638 M164,141 L711,140 L790,35 L734,0 L84,0 L49,42 M461,800 L592,800 L673,1287 L540,1287 M448,640 L576,640 L499,153 L366,153"/> 
            <glyph glyph-name="$" unicode="&#x24;" horiz-adv-x="944" d=" M330,1301 L252,1406 L301,1434 L620,1434 L598,1301 M231,1392 L315,1287 L231,797 L166,747 L105,818 L196,1364 M814,790 L874,724 L795,651 L519,651 L538,790 M245,651 L175,727 L259,790 L522,790 L502,651 M881,700 L944,630 L853,82 L811,56 L729,155 L812,638 M711,140 L790,35 L734,0 L414,0 L439,140 M461,800 L592,800 L673,1287 L540,1287 M886,1287 L875,1204 L697,800 L606,800 L618,883 L799,1287 M448,640 L576,640 L499,153 L366,153 M435,639 L424,556 L246,152 L155,152 L167,235 L348,639"/> 
            <glyph glyph-name="%" unicode="&#x25;" horiz-adv-x="874" d=" M330,1301 L252,1406 L301,1434 L620,1434 L598,1301 M814,790 L874,724 L795,651 L519,651 L538,790 M245,651 L175,727 L259,790 L522,790 L502,651 M161,707 L217,637 L144,155 L28,63 L0,105 L91,658 M711,140 L790,35 L734,0 L414,0 L439,140 M84,0 L49,42 L164,141 L427,140 L402,0 M326,1289 L408,1289 L464,890 L450,799 L361,799 L311,1202 M589,639 L671,639 L727,240 L713,149 L624,149 L574,552"/> 
            <glyph glyph-name="&amp;" unicode="&#x26;" horiz-adv-x="673" d=" M461,800 L592,800 L673,1287 L540,1287"/> 
            <glyph glyph-name="'" unicode="&#x27;" horiz-adv-x="999" d=" M958,1434 L999,1393 L882,1301 L614,1301 L635,1434 M711,140 L790,35 L734,0 L414,0 L439,140 M461,800 L592,800 L673,1287 L540,1287 M448,640 L576,640 L499,153 L366,153"/> 
            <glyph glyph-name="(" unicode="&#x28;" horiz-adv-x="673" d=" M330,1301 L252,1406 L301,1434 L620,1434 L598,1301 M84,0 L49,42 L164,141 L427,140 L402,0 M461,800 L592,800 L673,1287 L540,1287 M448,640 L576,640 L499,153 L366,153"/> 
            <glyph glyph-name=")" unicode="&#x29;" horiz-adv-x="886" d=" M814,790 L874,724 L795,651 L519,651 L538,790 M245,651 L175,727 L259,790 L522,790 L502,651 M461,800 L592,800 L673,1287 L540,1287 M886,1287 L875,1204 L697,800 L606,800 L618,883 L799,1287 M326,1289 L408,1289 L464,890 L450,799 L361,799 L311,1202 M448,640 L576,640 L499,153 L366,153 M589,639 L671,639 L727,240 L713,149 L624,149 L574,552 M435,639 L424,556 L246,152 L155,152 L167,235 L348,639"/> 
            <glyph glyph-name="*" unicode="&#x2A;" horiz-adv-x="874" d=" M814,790 L874,724 L795,651 L519,651 L538,790 M245,651 L175,727 L259,790 L522,790 L502,651 M461,800 L592,800 L673,1287 L540,1287 M448,640 L576,640 L499,153 L366,153"/> 
            <glyph glyph-name="+" unicode="&#x2B;" horiz-adv-x="435" d=" M435,639 L424,556 L246,152 L155,152 L167,235 L348,639"/> 
            <glyph glyph-name="," unicode="&#x2C;" horiz-adv-x="874" d=" M814,790 L874,724 L795,651 L519,651 L538,790 M245,651 L175,727 L259,790 L522,790 L502,651"/> 
            <glyph glyph-name="-" unicode="&#x2D;" horiz-adv-x="379" d=" M145,167 L227,251 Q242,265 256,265 Q269,265 287,249 L367,163 Q379,147 379,134 Q379,119 365,103 L285,15 Q265,-5 256,-5 Q240,-5 227,9 L139,110 Q129,123 129,136 Q129,151 145,167"/> 
            <glyph glyph-name="." unicode="&#x2E;" horiz-adv-x="886" d=" M886,1287 L875,1204 L697,800 L606,800 L618,883 L799,1287 M435,639 L424,556 L246,152 L155,152 L167,235 L348,639"/> 
            <glyph glyph-name="/" unicode="&#x2F;" horiz-adv-x="1049" d=" M301,1434 L958,1434 L999,1393 L882,1301 L330,1301 L252,1406 M231,1392 L315,1287 L231,797 L166,747 L105,818 L196,1364 M1014,1378 L1049,1336 L965,804 L888,741 L832,804 L900,1289 M161,707 L217,637 L144,155 L28,63 L0,105 L91,658 M881,700 L944,630 L853,82 L811,56 L729,155 L812,638 M164,141 L711,140 L790,35 L734,0 L84,0 L49,42"/> 
            <glyph glyph-name="0" unicode="&#x30;" horiz-adv-x="1049" d=" M1014,1378 L1049,1336 L965,804 L888,741 L832,804 L900,1289 M881,700 L944,630 L853,82 L811,56 L729,155 L812,638"/> 
            <glyph glyph-name="1" unicode="&#x31;" horiz-adv-x="1049" d=" M301,1434 L958,1434 L999,1393 L882,1301 L330,1301 L252,1406 M1014,1378 L1049,1336 L965,804 L888,741 L832,804 L900,1289 M259,790 L814,790 L874,724 L795,651 L245,651 L175,727 M161,707 L217,637 L144,155 L28,63 L0,105 L91,658 M164,141 L711,140 L790,35 L734,0 L84,0 L49,42"/> 
            <glyph glyph-name="2" unicode="&#x32;" horiz-adv-x="1049" d=" M301,1434 L958,1434 L999,1393 L882,1301 L330,1301 L252,1406 M1014,1378 L1049,1336 L965,804 L888,741 L832,804 L900,1289 M259,790 L814,790 L874,724 L795,651 L245,651 L175,727 M881,700 L944,630 L853,82 L811,56 L729,155 L812,638 M164,141 L711,140 L790,35 L734,0 L84,0 L49,42"/> 
            <glyph glyph-name="3" unicode="&#x33;" horiz-adv-x="1049" d=" M231,1392 L315,1287 L231,797 L166,747 L105,818 L196,1364 M1014,1378 L1049,1336 L965,804 L888,741 L832,804 L900,1289 M259,790 L814,790 L874,724 L795,651 L245,651 L175,727 M881,700 L944,630 L853,82 L811,56 L729,155 L812,638"/> 
            <glyph glyph-name="4" unicode="&#x34;" horiz-adv-x="999" d=" M301,1434 L958,1434 L999,1393 L882,1301 L330,1301 L252,1406 M231,1392 L315,1287 L231,797 L166,747 L105,818 L196,1364 M259,790 L814,790 L874,724 L795,651 L245,651 L175,727 M881,700 L944,630 L853,82 L811,56 L729,155 L812,638 M164,141 L711,140 L790,35 L734,0 L84,0 L49,42"/> 
            <glyph glyph-name="5" unicode="&#x35;" horiz-adv-x="944" d=" M231,1392 L315,1287 L231,797 L166,747 L105,818 L196,1364 M259,790 L814,790 L874,724 L795,651 L245,651 L175,727 M161,707 L217,637 L144,155 L28,63 L0,105 L91,658 M881,700 L944,630 L853,82 L811,56 L729,155 L812,638 M164,141 L711,140 L790,35 L734,0 L84,0 L49,42"/> 
            <glyph glyph-name="6" unicode="&#x36;" horiz-adv-x="1049" d=" M301,1434 L958,1434 L999,1393 L882,1301 L330,1301 L252,1406 M231,1392 L315,1287 L231,797 L166,747 L105,818 L196,1364 M1014,1378 L1049,1336 L965,804 L888,741 L832,804 L900,1289 M881,700 L944,630 L853,82 L811,56 L729,155 L812,638"/> 
            <glyph glyph-name="7" unicode="&#x37;" horiz-adv-x="1049" d=" M301,1434 L958,1434 L999,1393 L882,1301 L330,1301 L252,1406 M231,1392 L315,1287 L231,797 L166,747 L105,818 L196,1364 M1014,1378 L1049,1336 L965,804 L888,741 L832,804 L900,1289 M259,790 L814,790 L874,724 L795,651 L245,651 L175,727 M161,707 L217,637 L144,155 L28,63 L0,105 L91,658 M881,700 L944,630 L853,82 L811,56 L729,155 L812,638 M164,141 L711,140 L790,35 L734,0 L84,0 L49,42"/> 
            <glyph glyph-name="8" unicode="&#x38;" horiz-adv-x="1049" d=" M301,1434 L958,1434 L999,1393 L882,1301 L330,1301 L252,1406 M231,1392 L315,1287 L231,797 L166,747 L105,818 L196,1364 M1014,1378 L1049,1336 L965,804 L888,741 L832,804 L900,1289 M259,790 L814,790 L874,724 L795,651 L245,651 L175,727 M881,700 L944,630 L853,82 L811,56 L729,155 L812,638 M164,141 L711,140 L790,35 L734,0 L84,0 L49,42"/> 
            <glyph glyph-name="9" unicode="&#x39;" horiz-adv-x="379" d=" M145,167 L227,251 Q242,265 256,265 Q269,265 287,249 L367,163 Q379,147 379,134 Q379,119 365,103 L285,15 Q265,-5 256,-5 Q240,-5 227,9 L139,110 Q129,123 129,136 Q129,151 145,167 M145,860 L227,944 Q242,958 256,958 Q269,958 287,942 L367,856 Q379,840 379,827 Q379,812 365,796 L285,708 Q265,688 256,688 Q240,688 227,702 L139,803 Q129,816 129,829 Q129,844 145,860"/> 
            <glyph glyph-name=":" unicode="&#x3A;" horiz-adv-x="379" d=" M145,859 L227,943 Q242,957 256,957 Q269,957 287,941 L367,855 Q379,839 379,826 Q379,811 365,795 L285,707 Q265,687 256,687 Q240,687 227,701 L139,802 Q129,815 129,828 Q129,843 145,859 M238,258 Q282,258 326.5,192.5 Q371,127 371,41 Q371,-68 300,-185.5 Q229,-303 161,-303 L161,-260 Q234,-217 248,-70 Q248,49 119,91 L119,133"/> 
            <glyph glyph-name=";" unicode="&#x3B;" horiz-adv-x="886" d=" M886,1287 L875,1204 L697,800 L606,800 L618,883 L799,1287 M589,639 L671,639 L727,240 L713,149 L624,149 L574,552"/> 
            <glyph glyph-name="&lt;" unicode="&#x3C;" horiz-adv-x="874" d=" M814,790 L874,724 L795,651 L519,651 L538,790 M245,651 L175,727 L259,790 L522,790 L502,651 M711,140 L790,35 L734,0 L414,0 L439,140 M84,0 L49,42 L164,141 L427,140 L402,0"/> 
            <glyph glyph-name="=" unicode="&#x3D;" horiz-adv-x="464" d=" M326,1289 L408,1289 L464,890 L450,799 L361,799 L311,1202 M435,639 L424,556 L246,152 L155,152 L167,235 L348,639"/> 
            <glyph glyph-name="&gt;" unicode="&#x3E;" horiz-adv-x="1049" d=" M958,1434 L999,1393 L882,1301 L614,1301 L635,1434 M330,1301 L252,1406 L301,1434 L620,1434 L598,1301 M1014,1378 L1049,1336 L965,804 L888,741 L832,804 L900,1289 M814,790 L874,724 L795,651 L519,651 L538,790 M448,640 L576,640 L499,153 L366,153"/> 
            <glyph glyph-name="?" unicode="&#x3F;" horiz-adv-x="1049" d=" M958,1434 L999,1393 L882,1301 L614,1301 L635,1434 M330,1301 L252,1406 L301,1434 L620,1434 L598,1301 M1014,1378 L1049,1336 L965,804 L888,741 L832,804 L900,1289 M245,651 L175,727 L259,790 L522,790 L502,651 M161,707 L217,637 L144,155 L28,63 L0,105 L91,658 M881,700 L944,630 L853,82 L811,56 L729,155 L812,638 M711,140 L790,35 L734,0 L414,0 L439,140 M84,0 L49,42 L164,141 L427,140 L402,0 M448,640 L576,640 L499,153 L366,153"/> 
            <glyph glyph-name="@" unicode="&#x40;" horiz-adv-x="1049" d=" M301,1434 L958,1434 L999,1393 L882,1301 L330,1301 L252,1406 M231,1392 L315,1287 L231,797 L166,747 L105,818 L196,1364 M1014,1378 L1049,1336 L965,804 L888,741 L832,804 L900,1289 M814,790 L874,724 L795,651 L519,651 L538,790 M245,651 L175,727 L259,790 L522,790 L502,651 M161,707 L217,637 L144,155 L28,63 L0,105 L91,658 M881,700 L944,630 L853,82 L811,56 L729,155 L812,638"/> 
            <glyph glyph-name="A" unicode="&#x41;" horiz-adv-x="1049" d=" M301,1434 L958,1434 L999,1393 L882,1301 L330,1301 L252,1406 M1014,1378 L1049,1336 L965,804 L888,741 L832,804 L900,1289 M814,790 L874,724 L795,651 L519,651 L538,790 M881,700 L944,630 L853,82 L811,56 L729,155 L812,638 M164,141 L711,140 L790,35 L734,0 L84,0 L49,42 M461,800 L592,800 L673,1287 L540,1287 M448,640 L576,640 L499,153 L366,153"/> 
            <glyph glyph-name="B" unicode="&#x42;" horiz-adv-x="999" d=" M301,1434 L958,1434 L999,1393 L882,1301 L330,1301 L252,1406 M231,1392 L315,1287 L231,797 L166,747 L105,818 L196,1364 M161,707 L217,637 L144,155 L28,63 L0,105 L91,658 M164,141 L711,140 L790,35 L734,0 L84,0 L49,42"/> 
            <glyph glyph-name="C" unicode="&#x43;" horiz-adv-x="1049" d=" M301,1434 L958,1434 L999,1393 L882,1301 L330,1301 L252,1406 M1014,1378 L1049,1336 L965,804 L888,741 L832,804 L900,1289 M881,700 L944,630 L853,82 L811,56 L729,155 L812,638 M164,141 L711,140 L790,35 L734,0 L84,0 L49,42 M461,800 L592,800 L673,1287 L540,1287 M448,640 L576,640 L499,153 L366,153"/> 
            <glyph glyph-name="D" unicode="&#x44;" horiz-adv-x="999" d=" M301,1434 L958,1434 L999,1393 L882,1301 L330,1301 L252,1406 M231,1392 L315,1287 L231,797 L166,747 L105,818 L196,1364 M814,790 L874,724 L795,651 L519,651 L538,790 M245,651 L175,727 L259,790 L522,790 L502,651 M161,707 L217,637 L144,155 L28,63 L0,105 L91,658 M164,141 L711,140 L790,35 L734,0 L84,0 L49,42"/> 
            <glyph glyph-name="E" unicode="&#x45;" horiz-adv-x="999" d=" M301,1434 L958,1434 L999,1393 L882,1301 L330,1301 L252,1406 M231,1392 L315,1287 L231,797 L166,747 L105,818 L196,1364 M814,790 L874,724 L795,651 L519,651 L538,790 M245,651 L175,727 L259,790 L522,790 L502,651 M161,707 L217,637 L144,155 L28,63 L0,105 L91,658"/> 
            <glyph glyph-name="F" unicode="&#x46;" horiz-adv-x="999" d=" M301,1434 L958,1434 L999,1393 L882,1301 L330,1301 L252,1406 M231,1392 L315,1287 L231,797 L166,747 L105,818 L196,1364 M814,790 L874,724 L795,651 L519,651 L538,790 M161,707 L217,637 L144,155 L28,63 L0,105 L91,658 M881,700 L944,630 L853,82 L811,56 L729,155 L812,638 M164,141 L711,140 L790,35 L734,0 L84,0 L49,42"/> 
            <glyph glyph-name="G" unicode="&#x47;" horiz-adv-x="1049" d=" M231,1392 L315,1287 L231,797 L166,747 L105,818 L196,1364 M1014,1378 L1049,1336 L965,804 L888,741 L832,804 L900,1289 M814,790 L874,724 L795,651 L519,651 L538,790 M245,651 L175,727 L259,790 L522,790 L502,651 M161,707 L217,637 L144,155 L28,63 L0,105 L91,658 M881,700 L944,630 L853,82 L811,56 L729,155 L812,638"/> 
            <glyph glyph-name="H" unicode="&#x48;" horiz-adv-x="999" d=" M301,1434 L958,1434 L999,1393 L882,1301 L330,1301 L252,1406 M164,141 L711,140 L790,35 L734,0 L84,0 L49,42 M461,800 L592,800 L673,1287 L540,1287 M448,640 L576,640 L499,153 L366,153"/> 
            <glyph glyph-name="I" unicode="&#x49;" horiz-adv-x="1049" d=" M1014,1378 L1049,1336 L965,804 L888,741 L832,804 L900,1289 M161,707 L217,637 L144,155 L28,63 L0,105 L91,658 M881,700 L944,630 L853,82 L811,56 L729,155 L812,638 M164,141 L711,140 L790,35 L734,0 L84,0 L49,42"/> 
            <glyph glyph-name="J" unicode="&#x4A;" horiz-adv-x="886" d=" M231,1392 L315,1287 L231,797 L166,747 L105,818 L196,1364 M245,651 L175,727 L259,790 L522,790 L502,651 M161,707 L217,637 L144,155 L28,63 L0,105 L91,658 M886,1287 L875,1204 L697,800 L606,800 L618,883 L799,1287 M589,639 L671,639 L727,240 L713,149 L624,149 L574,552"/> 
            <glyph glyph-name="K" unicode="&#x4B;" horiz-adv-x="790" d=" M231,1392 L315,1287 L231,797 L166,747 L105,818 L196,1364 M161,707 L217,637 L144,155 L28,63 L0,105 L91,658 M164,141 L711,140 L790,35 L734,0 L84,0 L49,42"/> 
            <glyph glyph-name="L" unicode="&#x4C;" horiz-adv-x="1049" d=" M231,1392 L315,1287 L231,797 L166,747 L105,818 L196,1364 M1014,1378 L1049,1336 L965,804 L888,741 L832,804 L900,1289 M161,707 L217,637 L144,155 L28,63 L0,105 L91,658 M881,700 L944,630 L853,82 L811,56 L729,155 L812,638 M886,1287 L875,1204 L697,800 L606,800 L618,883 L799,1287 M326,1289 L408,1289 L464,890 L450,799 L361,799 L311,1202 M448,640 L576,640 L499,153 L366,153"/> 
            <glyph glyph-name="M" unicode="&#x4D;" horiz-adv-x="1049" d=" M231,1392 L315,1287 L231,797 L166,747 L105,818 L196,1364 M1014,1378 L1049,1336 L965,804 L888,741 L832,804 L900,1289 M161,707 L217,637 L144,155 L28,63 L0,105 L91,658 M881,700 L944,630 L853,82 L811,56 L729,155 L812,638 M326,1289 L408,1289 L464,890 L450,799 L361,799 L311,1202 M589,639 L671,639 L727,240 L713,149 L624,149 L574,552"/> 
            <glyph glyph-name="N" unicode="&#x4E;" horiz-adv-x="1049" d=" M301,1434 L958,1434 L999,1393 L882,1301 L330,1301 L252,1406 M231,1392 L315,1287 L231,797 L166,747 L105,818 L196,1364 M1014,1378 L1049,1336 L965,804 L888,741 L832,804 L900,1289 M161,707 L217,637 L144,155 L28,63 L0,105 L91,658 M881,700 L944,630 L853,82 L811,56 L729,155 L812,638 M164,141 L711,140 L790,35 L734,0 L84,0 L49,42"/> 
            <glyph glyph-name="O" unicode="&#x4F;" horiz-adv-x="1049" d=" M301,1434 L958,1434 L999,1393 L882,1301 L330,1301 L252,1406 M231,1392 L315,1287 L231,797 L166,747 L105,818 L196,1364 M1014,1378 L1049,1336 L965,804 L888,741 L832,804 L900,1289 M814,790 L874,724 L795,651 L519,651 L538,790 M245,651 L175,727 L259,790 L522,790 L502,651 M161,707 L217,637 L144,155 L28,63 L0,105 L91,658"/> 
            <glyph glyph-name="P" unicode="&#x50;" horiz-adv-x="1049" d=" M301,1434 L958,1434 L999,1393 L882,1301 L330,1301 L252,1406 M231,1392 L315,1287 L231,797 L166,747 L105,818 L196,1364 M1014,1378 L1049,1336 L965,804 L888,741 L832,804 L900,1289 M161,707 L217,637 L144,155 L28,63 L0,105 L91,658 M881,700 L944,630 L853,82 L811,56 L729,155 L812,638 M164,141 L711,140 L790,35 L734,0 L84,0 L49,42 M589,639 L671,639 L727,240 L713,149 L624,149 L574,552"/> 
            <glyph glyph-name="Q" unicode="&#x51;" horiz-adv-x="1049" d=" M301,1434 L958,1434 L999,1393 L882,1301 L330,1301 L252,1406 M231,1392 L315,1287 L231,797 L166,747 L105,818 L196,1364 M1014,1378 L1049,1336 L965,804 L888,741 L832,804 L900,1289 M814,790 L874,724 L795,651 L519,651 L538,790 M245,651 L175,727 L259,790 L522,790 L502,651 M161,707 L217,637 L144,155 L28,63 L0,105 L91,658 M589,639 L671,639 L727,240 L713,149 L624,149 L574,552"/> 
            <glyph glyph-name="R" unicode="&#x52;" horiz-adv-x="999" d=" M301,1434 L958,1434 L999,1393 L882,1301 L330,1301 L252,1406 M231,1392 L315,1287 L231,797 L166,747 L105,818 L196,1364 M814,790 L874,724 L795,651 L519,651 L538,790 M245,651 L175,727 L259,790 L522,790 L502,651 M881,700 L944,630 L853,82 L811,56 L729,155 L812,638 M164,141 L711,140 L790,35 L734,0 L84,0 L49,42"/> 
            <glyph glyph-name="S" unicode="&#x53;" horiz-adv-x="999" d=" M301,1434 L958,1434 L999,1393 L882,1301 L330,1301 L252,1406 M461,800 L592,800 L673,1287 L540,1287 M448,640 L576,640 L499,153 L366,153"/> 
            <glyph glyph-name="T" unicode="&#x54;" horiz-adv-x="1049" d=" M231,1392 L315,1287 L231,797 L166,747 L105,818 L196,1364 M1014,1378 L1049,1336 L965,804 L888,741 L832,804 L900,1289 M161,707 L217,637 L144,155 L28,63 L0,105 L91,658 M881,700 L944,630 L853,82 L811,56 L729,155 L812,638 M164,141 L711,140 L790,35 L734,0 L84,0 L49,42"/> 
            <glyph glyph-name="U" unicode="&#x55;" horiz-adv-x="1049" d=" M1014,1378 L1049,1336 L965,804 L888,741 L832,804 L900,1289 M881,700 L944,630 L853,82 L811,56 L729,155 L812,638 M326,1289 L408,1289 L464,890 L450,799 L361,799 L311,1202 M589,639 L671,639 L727,240 L713,149 L624,149 L574,552"/> 
            <glyph glyph-name="V" unicode="&#x56;" horiz-adv-x="1049" d=" M231,1392 L315,1287 L231,797 L166,747 L105,818 L196,1364 M1014,1378 L1049,1336 L965,804 L888,741 L832,804 L900,1289 M161,707 L217,637 L144,155 L28,63 L0,105 L91,658 M881,700 L944,630 L853,82 L811,56 L729,155 L812,638 M461,800 L592,800 L673,1287 L540,1287 M589,639 L671,639 L727,240 L713,149 L624,149 L574,552 M435,639 L424,556 L246,152 L155,152 L167,235 L348,639"/> 
            <glyph glyph-name="W" unicode="&#x57;" horiz-adv-x="886" d=" M886,1287 L875,1204 L697,800 L606,800 L618,883 L799,1287 M326,1289 L408,1289 L464,890 L450,799 L361,799 L311,1202 M589,639 L671,639 L727,240 L713,149 L624,149 L574,552 M435,639 L424,556 L246,152 L155,152 L167,235 L348,639"/> 
            <glyph glyph-name="X" unicode="&#x58;" horiz-adv-x="1049" d=" M231,1392 L315,1287 L231,797 L166,747 L105,818 L196,1364 M1014,1378 L1049,1336 L965,804 L888,741 L832,804 L900,1289 M814,790 L874,724 L795,651 L519,651 L538,790 M245,651 L175,727 L259,790 L522,790 L502,651 M448,640 L576,640 L499,153 L366,153"/> 
            <glyph glyph-name="Y" unicode="&#x59;" horiz-adv-x="999" d=" M301,1434 L958,1434 L999,1393 L882,1301 L330,1301 L252,1406 M164,141 L711,140 L790,35 L734,0 L84,0 L49,42 M886,1287 L875,1204 L697,800 L606,800 L618,883 L799,1287 M435,639 L424,556 L246,152 L155,152 L167,235 L348,639"/> 
            <glyph glyph-name="Z" unicode="&#x5A;" horiz-adv-x="620" d=" M330,1301 L252,1406 L301,1434 L620,1434 L598,1301 M231,1392 L315,1287 L231,797 L166,747 L105,818 L196,1364 M161,707 L217,637 L144,155 L28,63 L0,105 L91,658 M84,0 L49,42 L164,141 L427,140 L402,0"/> 
            <glyph glyph-name="[" unicode="&#x5B;" horiz-adv-x="727" d=" M326,1289 L408,1289 L464,890 L450,799 L361,799 L311,1202 M589,639 L671,639 L727,240 L713,149 L624,149 L574,552"/> 
            <glyph glyph-name="\" unicode="&#x5C;" horiz-adv-x="1049" d=" M958,1434 L999,1393 L882,1301 L614,1301 L635,1434 M1014,1378 L1049,1336 L965,804 L888,741 L832,804 L900,1289 M881,700 L944,630 L853,82 L811,56 L729,155 L812,638 M711,140 L790,35 L734,0 L414,0 L439,140"/> 
            <glyph glyph-name="^" unicode="&#x5E;" horiz-adv-x="790" d=" M711,140 L790,35 L734,0 L414,0 L439,140 M84,0 L49,42 L164,141 L427,140 L402,0"/> 
            <glyph glyph-name="_" unicode="&#x5F;" horiz-adv-x="464" d=" M326,1289 L408,1289 L464,890 L450,799 L361,799 L311,1202"/> 
            <glyph glyph-name="`" unicode="&#x60;" horiz-adv-x="1049" d=" M301,1434 L958,1434 L999,1393 L882,1301 L330,1301 L252,1406 M1014,1378 L1049,1336 L965,804 L888,741 L832,804 L900,1289 M814,790 L874,724 L795,651 L519,651 L538,790 M245,651 L175,727 L259,790 L522,790 L502,651 M161,707 L217,637 L144,155 L28,63 L0,105 L91,658 M881,700 L944,630 L853,82 L811,56 L729,155 L812,638 M164,141 L711,140 L790,35 L734,0 L84,0 L49,42"/> 
            <glyph glyph-name="a" unicode="&#x61;" horiz-adv-x="944" d=" M231,1392 L315,1287 L231,797 L166,747 L105,818 L196,1364 M814,790 L874,724 L795,651 L519,651 L538,790 M245,651 L175,727 L259,790 L522,790 L502,651 M161,707 L217,637 L144,155 L28,63 L0,105 L91,658 M881,700 L944,630 L853,82 L811,56 L729,155 L812,638 M164,141 L711,140 L790,35 L734,0 L84,0 L49,42"/> 
            <glyph glyph-name="b" unicode="&#x62;" horiz-adv-x="874" d=" M814,790 L874,724 L795,651 L519,651 L538,790 M245,651 L175,727 L259,790 L522,790 L502,651 M161,707 L217,637 L144,155 L28,63 L0,105 L91,658 M164,141 L711,140 L790,35 L734,0 L84,0 L49,42"/> 
            <glyph glyph-name="c" unicode="&#x63;" horiz-adv-x="1049" d=" M1014,1378 L1049,1336 L965,804 L888,741 L832,804 L900,1289 M814,790 L874,724 L795,651 L519,651 L538,790 M245,651 L175,727 L259,790 L522,790 L502,651 M161,707 L217,637 L144,155 L28,63 L0,105 L91,658 M881,700 L944,630 L853,82 L811,56 L729,155 L812,638 M164,141 L711,140 L790,35 L734,0 L84,0 L49,42"/> 
            <glyph glyph-name="d" unicode="&#x64;" horiz-adv-x="1049" d=" M301,1434 L958,1434 L999,1393 L882,1301 L330,1301 L252,1406 M231,1392 L315,1287 L231,797 L166,747 L105,818 L196,1364 M1014,1378 L1049,1336 L965,804 L888,741 L832,804 L900,1289 M814,790 L874,724 L795,651 L519,651 L538,790 M245,651 L175,727 L259,790 L522,790 L502,651 M161,707 L217,637 L144,155 L28,63 L0,105 L91,658 M164,141 L711,140 L790,35 L734,0 L84,0 L49,42"/> 
            <glyph glyph-name="e" unicode="&#x65;" horiz-adv-x="999" d=" M301,1434 L958,1434 L999,1393 L882,1301 L330,1301 L252,1406 M231,1392 L315,1287 L231,797 L166,747 L105,818 L196,1364 M814,790 L874,724 L795,651 L519,651 L538,790 M245,651 L175,727 L259,790 L522,790 L502,651 M161,707 L217,637 L144,155 L28,63 L0,105 L91,658"/> 
            <glyph glyph-name="f" unicode="&#x66;" horiz-adv-x="1049" d=" M301,1434 L958,1434 L999,1393 L882,1301 L330,1301 L252,1406 M231,1392 L315,1287 L231,797 L166,747 L105,818 L196,1364 M1014,1378 L1049,1336 L965,804 L888,741 L832,804 L900,1289 M814,790 L874,724 L795,651 L519,651 L538,790 M245,651 L175,727 L259,790 L522,790 L502,651 M881,700 L944,630 L853,82 L811,56 L729,155 L812,638 M164,141 L711,140 L790,35 L734,0 L84,0 L49,42"/> 
            <glyph glyph-name="g" unicode="&#x67;" horiz-adv-x="944" d=" M231,1392 L315,1287 L231,797 L166,747 L105,818 L196,1364 M814,790 L874,724 L795,651 L519,651 L538,790 M245,651 L175,727 L259,790 L522,790 L502,651 M161,707 L217,637 L144,155 L28,63 L0,105 L91,658 M881,700 L944,630 L853,82 L811,56 L729,155 L812,638"/> 
            <glyph glyph-name="h" unicode="&#x68;" horiz-adv-x="315" d=" M231,1392 L315,1287 L231,797 L166,747 L105,818 L196,1364 M161,707 L217,637 L144,155 L28,63 L0,105 L91,658"/> 
            <glyph glyph-name="i" unicode="&#x69;" horiz-adv-x="1049" d=" M1014,1378 L1049,1336 L965,804 L888,741 L832,804 L900,1289 M161,707 L217,637 L144,155 L28,63 L0,105 L91,658 M881,700 L944,630 L853,82 L811,56 L729,155 L812,638 M164,141 L711,140 L790,35 L734,0 L84,0 L49,42"/> 
            <glyph glyph-name="j" unicode="&#x6A;" horiz-adv-x="886" d=" M231,1392 L315,1287 L231,797 L166,747 L105,818 L196,1364 M245,651 L175,727 L259,790 L522,790 L502,651 M161,707 L217,637 L144,155 L28,63 L0,105 L91,658 M886,1287 L875,1204 L697,800 L606,800 L618,883 L799,1287 M589,639 L671,639 L727,240 L713,149 L624,149 L574,552"/> 
            <glyph glyph-name="k" unicode="&#x6B;" horiz-adv-x="790" d=" M231,1392 L315,1287 L231,797 L166,747 L105,818 L196,1364 M161,707 L217,637 L144,155 L28,63 L0,105 L91,658 M164,141 L711,140 L790,35 L734,0 L84,0 L49,42"/> 
            <glyph glyph-name="l" unicode="&#x6C;" horiz-adv-x="944" d=" M814,790 L874,724 L795,651 L519,651 L538,790 M245,651 L175,727 L259,790 L522,790 L502,651 M161,707 L217,637 L144,155 L28,63 L0,105 L91,658 M881,700 L944,630 L853,82 L811,56 L729,155 L812,638 M448,640 L576,640 L499,153 L366,153"/> 
            <glyph glyph-name="m" unicode="&#x6D;" horiz-adv-x="944" d=" M814,790 L874,724 L795,651 L519,651 L538,790 M245,651 L175,727 L259,790 L522,790 L502,651 M161,707 L217,637 L144,155 L28,63 L0,105 L91,658 M881,700 L944,630 L853,82 L811,56 L729,155 L812,638"/> 
            <glyph glyph-name="n" unicode="&#x6E;" horiz-adv-x="944" d=" M814,790 L874,724 L795,651 L519,651 L538,790 M245,651 L175,727 L259,790 L522,790 L502,651 M161,707 L217,637 L144,155 L28,63 L0,105 L91,658 M881,700 L944,630 L853,82 L811,56 L729,155 L812,638 M164,141 L711,140 L790,35 L734,0 L84,0 L49,42"/> 
            <glyph glyph-name="o" unicode="&#x6F;" horiz-adv-x="1049" d=" M301,1434 L958,1434 L999,1393 L882,1301 L330,1301 L252,1406 M231,1392 L315,1287 L231,797 L166,747 L105,818 L196,1364 M1014,1378 L1049,1336 L965,804 L888,741 L832,804 L900,1289 M814,790 L874,724 L795,651 L519,651 L538,790 M245,651 L175,727 L259,790 L522,790 L502,651 M161,707 L217,637 L144,155 L28,63 L0,105 L91,658"/> 
            <glyph glyph-name="p" unicode="&#x70;" horiz-adv-x="1049" d=" M301,1434 L958,1434 L999,1393 L882,1301 L330,1301 L252,1406 M231,1392 L315,1287 L231,797 L166,747 L105,818 L196,1364 M1014,1378 L1049,1336 L965,804 L888,741 L832,804 L900,1289 M814,790 L874,724 L795,651 L519,651 L538,790 M245,651 L175,727 L259,790 L522,790 L502,651 M881,700 L944,630 L853,82 L811,56 L729,155 L812,638"/> 
            <glyph glyph-name="q" unicode="&#x71;" horiz-adv-x="874" d=" M814,790 L874,724 L795,651 L519,651 L538,790 M245,651 L175,727 L259,790 L522,790 L502,651 M161,707 L217,637 L144,155 L28,63 L0,105 L91,658"/> 
            <glyph glyph-name="r" unicode="&#x72;" horiz-adv-x="999" d=" M301,1434 L958,1434 L999,1393 L882,1301 L330,1301 L252,1406 M231,1392 L315,1287 L231,797 L166,747 L105,818 L196,1364 M814,790 L874,724 L795,651 L519,651 L538,790 M245,651 L175,727 L259,790 L522,790 L502,651 M881,700 L944,630 L853,82 L811,56 L729,155 L812,638 M164,141 L711,140 L790,35 L734,0 L84,0 L49,42"/> 
            <glyph glyph-name="s" unicode="&#x73;" horiz-adv-x="874" d=" M231,1392 L315,1287 L231,797 L166,747 L105,818 L196,1364 M814,790 L874,724 L795,651 L519,651 L538,790 M245,651 L175,727 L259,790 L522,790 L502,651 M161,707 L217,637 L144,155 L28,63 L0,105 L91,658 M164,141 L711,140 L790,35 L734,0 L84,0 L49,42"/> 
            <glyph glyph-name="t" unicode="&#x74;" horiz-adv-x="944" d=" M161,707 L217,637 L144,155 L28,63 L0,105 L91,658 M881,700 L944,630 L853,82 L811,56 L729,155 L812,638 M164,141 L711,140 L790,35 L734,0 L84,0 L49,42"/> 
            <glyph glyph-name="u" unicode="&#x75;" horiz-adv-x="1049" d=" M1014,1378 L1049,1336 L965,804 L888,741 L832,804 L900,1289 M881,700 L944,630 L853,82 L811,56 L729,155 L812,638 M326,1289 L408,1289 L464,890 L450,799 L361,799 L311,1202 M589,639 L671,639 L727,240 L713,149 L624,149 L574,552"/> 
            <glyph glyph-name="v" unicode="&#x76;" horiz-adv-x="944" d=" M161,707 L217,637 L144,155 L28,63 L0,105 L91,658 M881,700 L944,630 L853,82 L811,56 L729,155 L812,638 M164,141 L711,140 L790,35 L734,0 L84,0 L49,42 M448,640 L576,640 L499,153 L366,153"/> 
            <glyph glyph-name="w" unicode="&#x77;" horiz-adv-x="886" d=" M886,1287 L875,1204 L697,800 L606,800 L618,883 L799,1287 M326,1289 L408,1289 L464,890 L450,799 L361,799 L311,1202 M589,639 L671,639 L727,240 L713,149 L624,149 L574,552 M435,639 L424,556 L246,152 L155,152 L167,235 L348,639"/> 
            <glyph glyph-name="x" unicode="&#x78;" horiz-adv-x="1049" d=" M231,1392 L315,1287 L231,797 L166,747 L105,818 L196,1364 M1014,1378 L1049,1336 L965,804 L888,741 L832,804 L900,1289 M814,790 L874,724 L795,651 L519,651 L538,790 M245,651 L175,727 L259,790 L522,790 L502,651 M881,700 L944,630 L853,82 L811,56 L729,155 L812,638 M164,141 L711,140 L790,35 L734,0 L84,0 L49,42"/> 
            <glyph glyph-name="y" unicode="&#x79;" horiz-adv-x="999" d=" M301,1434 L958,1434 L999,1393 L882,1301 L330,1301 L252,1406 M164,141 L711,140 L790,35 L734,0 L84,0 L49,42 M886,1287 L875,1204 L697,800 L606,800 L618,883 L799,1287 M435,639 L424,556 L246,152 L155,152 L167,235 L348,639"/> 
            <glyph glyph-name="z" unicode="&#x7A;" horiz-adv-x="999" d=" M958,1434 L999,1393 L882,1301 L614,1301 L635,1434 M245,651 L175,727 L259,790 L522,790 L502,651 M711,140 L790,35 L734,0 L414,0 L439,140 M461,800 L592,800 L673,1287 L540,1287 M448,640 L576,640 L499,153 L366,153"/> 
            <glyph glyph-name="{" unicode="&#x7B;" horiz-adv-x="587" d=" M427,1577 L587,1577 L587,-418 L427,-418"/> 
            <glyph glyph-name="|" unicode="&#x7C;" horiz-adv-x="874" d=" M330,1301 L252,1406 L301,1434 L620,1434 L598,1301 M814,790 L874,724 L795,651 L519,651 L538,790 M84,0 L49,42 L164,141 L427,140 L402,0 M461,800 L592,800 L673,1287 L540,1287 M448,640 L576,640 L499,153 L366,153"/> 
            <glyph glyph-name="}" unicode="&#x7D;" horiz-adv-x="923" d=" M923,878 L923,722 Q860,650 801,624.5 Q742,599 685,599 Q625,599 507.5,647.5 Q390,696 331,696 Q280,696 223.5,668 Q167,640 94,556 L94,712 Q158,785 217,811 Q276,837 331,837 Q395,837 512.5,787.5 Q630,738 685,738 Q737,738 793.5,766 Q850,794 923,878"/> 
            <glyph glyph-name="" unicode="&#x81;" horiz-adv-x="1049" d=" M958,1434 L999,1393 L882,1301 L614,1301 L635,1434 M330,1301 L252,1406 L301,1434 L620,1434 L598,1301 M231,1392 L315,1287 L231,797 L166,747 L105,818 L196,1364 M1014,1378 L1049,1336 L965,804 L888,741 L832,804 L900,1289 M814,790 L874,724 L795,651 L519,651 L538,790 M245,651 L175,727 L259,790 L522,790 L502,651 M161,707 L217,637 L144,155 L28,63 L0,105 L91,658 M881,700 L944,630 L853,82 L811,56 L729,155 L812,638 M711,140 L790,35 L734,0 L414,0 L439,140 M84,0 L49,42 L164,141 L427,140 L402,0 M461,800 L592,800 L673,1287 L540,1287 M886,1287 L875,1204 L697,800 L606,800 L618,883 L799,1287 M326,1289 L408,1289 L464,890 L450,799 L361,799 L311,1202 M448,640 L576,640 L499,153 L366,153 M589,639 L671,639 L727,240 L713,149 L624,149 L574,552 M435,639 L424,556 L246,152 L155,152 L167,235 L348,639"/> 
            <glyph glyph-name="" unicode="&#x85;" horiz-adv-x="853" d=" M507,618 L260,371 L161,470 L408,717 L161,965 L260,1063 L507,816 L755,1063 L853,964 L606,717 L853,470 L754,371"/> 
            <glyph glyph-name="" unicode="&#x9A;" horiz-adv-x="927" d=" M87,647 L87,787 L926,787 L927,786 L927,647 M398,408 L480,492 Q495,506 509,506 Q522,506 540,490 L620,404 Q632,388 632,375 Q632,360 618,344 L538,256 Q518,236 509,236 Q493,236 480,250 L392,351 Q382,364 382,377 Q382,392 398,408 M398,1101 L480,1185 Q495,1199 509,1199 Q522,1199 540,1183 L620,1097 Q632,1081 632,1068 Q632,1053 618,1037 L538,949 Q518,929 509,929 Q493,929 480,943 L392,1044 Q382,1057 382,1070 Q382,1085 398,1101"/> 
            <glyph glyph-name=" " unicode="&#xA0;" horiz-adv-x="943" d=" M528,186 Q622,197 707,243 Q811,298 843,298 Q888,298 915.5,260.5 Q943,223 943,166 Q943,106 913,70 Q883,34 834,34 Q806,34 705,91 Q624,137 528,145 Q537,51 583,-34 Q638,-139 638,-171 Q638,-215 600.5,-242.5 Q563,-270 506,-270 Q446,-270 410,-240.5 Q374,-211 374,-162 Q374,-134 431,-33 Q477,48 485,145 Q391,136 306,90 Q201,34 169,34 Q125,34 97.5,71.5 Q70,109 70,166 Q70,226 99.5,262 Q129,298 178,298 Q206,298 307,241 Q389,196 485,186 Q476,412 374,584 Q476,755 485,981 Q389,971 307,926 Q206,869 178,869 Q129,869 99.5,905 Q70,941 70,1001 Q70,1058 97.5,1095.5 Q125,1133 169,1133 Q201,1133 306,1077 Q391,1031 485,1022 Q477,1119 431,1200 Q374,1301 374,1329 Q374,1378 410,1407.5 Q446,1437 506,1437 Q563,1437 600.5,1409.5 Q638,1382 638,1338 Q638,1306 583,1201 Q537,1116 528,1022 Q624,1030 705,1076 Q806,1133 834,1133 Q883,1133 913,1097 Q943,1061 943,1001 Q943,944 915.5,906.5 Q888,869 843,869 Q811,869 707,924 Q622,970 528,981 Q536,755 638,584 Q536,412 528,186"/> 
            <glyph glyph-name="¡" unicode="&#xA1;" horiz-adv-x="874" d=" M814,790 L874,724 L795,651 L519,651 L538,790 M245,651 L175,727 L259,790 L522,790 L502,651 M711,140 L790,35 L734,0 L414,0 L439,140 M84,0 L49,42 L164,141 L427,140 L402,0 M461,800 L592,800 L673,1287 L540,1287 M448,640 L576,640 L499,153 L366,153"/> 
            <glyph glyph-name="¢" unicode="&#xA2;" horiz-adv-x="999" d=" M958,1434 L999,1393 L882,1301 L614,1301 L635,1434 M814,790 L874,724 L795,651 L519,651 L538,790 M245,651 L175,727 L259,790 L522,790 L502,651 M711,140 L790,35 L734,0 L414,0 L439,140 M84,0 L49,42 L164,141 L427,140 L402,0 M461,800 L592,800 L673,1287 L540,1287 M435,639 L424,556 L246,152 L155,152 L167,235 L348,639"/> 
            <glyph glyph-name="£" unicode="&#xA3;" horiz-adv-x="891" d=" M350,560 Q391,520 449,503 Q478,495 507,495 Q536,495 565,503 Q623,520 664,560 Q704,601 721,659 Q730,688 730,717 Q730,746 721,775 Q704,833 664,874 Q623,914 564,931 Q535,939 506,939 Q477,939 448,930 Q390,913 350,874 Q311,834 294,776 Q284,746 284,716 Q284,688 293,660 Q309,601 350,560 M240,903 L122,1021 L202,1102 L320,984 Q364,1014 419,1030 Q463,1044 508,1044 Q549,1044 591,1032 Q648,1015 693,984 L811,1102 L891,1021 L774,904 Q805,858 822,802 Q834,760 834,717 Q834,675 822,632 Q805,576 774,530 L891,413 L811,332 L693,450 Q648,418 592,402 Q550,390 507,390 Q465,390 422,402 Q365,418 320,450 L202,332 L122,413 L240,530 Q208,576 192,633 Q180,675 180,717 Q180,761 193,804 Q209,859 240,903"/> 
            <glyph glyph-name="¤" unicode="&#xA4;" horiz-adv-x="790" d=" M223,1289 L294,1361 Q307,1373 319,1373 Q330,1373 346,1359 L415,1286 Q425,1272 425,1261 Q425,1248 413,1234 L344,1159 Q327,1142 319,1142 Q305,1142 294,1154 L218,1240 Q209,1252 209,1263 Q209,1276 223,1289 M588,1289 L659,1361 Q672,1373 684,1373 Q695,1373 711,1360 L780,1286 Q790,1272 790,1261 Q790,1248 778,1235 L709,1159 Q692,1142 684,1142 Q670,1142 659,1154 L583,1241 Q574,1252 574,1263 Q574,1276 588,1289"/> 
            <glyph glyph-name="¥" unicode="&#xA5;" horiz-adv-x="1745" d=" M145,167 L227,251 Q242,265 256,265 Q269,265 287,249 L367,163 Q379,147 379,134 Q379,119 365,103 L285,15 Q265,-5 256,-5 Q240,-5 227,9 L139,110 Q129,123 129,136 Q129,151 145,167 M828,167 L910,251 Q925,265 939,265 Q952,265 970,249 L1050,163 Q1062,147 1062,134 Q1062,119 1048,103 L968,15 Q948,-5 939,-5 Q923,-5 910,9 L822,110 Q812,123 812,136 Q812,151 828,167 M1511,167 L1593,251 Q1608,265 1622,265 Q1635,265 1653,249 L1733,163 Q1745,147 1745,134 Q1745,119 1731,103 L1651,15 Q1631,-5 1622,-5 Q1606,-5 1593,9 L1505,110 Q1495,123 1495,136 Q1495,151 1511,167"/> 
            <glyph glyph-name="¦" unicode="&#xA6;" horiz-adv-x="379" d=" M145,740 L227,824 Q242,838 256,838 Q269,838 287,822 L367,736 Q379,720 379,707 Q379,692 365,676 L285,588 Q265,568 256,568 Q240,568 227,582 L139,683 Q129,696 129,709 Q129,724 145,740"/> 
            <glyph glyph-name="ª" unicode="&#xAA;" horiz-adv-x="937" d=" M232,537 Q232,496 237,458 Q251,336 298.5,228 Q346,120 417,63 Q481,10 545,10 Q551,10 558,11 Q628,16 685.5,81.5 Q743,147 766,261 Q782,334 782,410 Q782,452 777,495 Q763,617 714.5,726.5 Q666,836 595,892 Q530,942 467,942 L456,942 Q388,937 330,872.5 Q272,808 248,694 Q232,610 232,537 M937,477 Q937,345 880.5,226 Q824,107 721.5,41 Q619,-25 507,-25 Q395,-25 292.5,41 Q190,107 133.5,226 Q77,345 77,477 Q77,608 135,728 Q193,848 296,913 Q399,978 507,978 Q616,978 719,913 Q748,895 773,872 Q689,1107 539.5,1249 Q390,1391 213,1404 L213,1459 Q519,1459 728,1174 Q937,889 937,477"/> 
            <glyph glyph-name="«" unicode="&#xAB;" horiz-adv-x="1049" d=" M231,1392 L315,1287 L231,797 L166,747 L105,818 L196,1364 M1014,1378 L1049,1336 L965,804 L888,741 L832,804 L900,1289 M814,790 L874,724 L795,651 L519,651 L538,790 M245,651 L175,727 L259,790 L522,790 L502,651 M161,707 L217,637 L144,155 L28,63 L0,105 L91,658"/> 
            <glyph glyph-name="¬" unicode="&#xAC;" horiz-adv-x="1574" d=" M840,1456 Q985,1456 1120,1399.5 Q1255,1343 1359,1239 Q1461,1138 1517.5,1001 Q1574,864 1574,718 Q1574,571 1517.5,436 Q1461,301 1355,196 Q1250,91 1116,36.5 Q982,-18 833,-18 Q687,-18 555,37.5 Q423,93 317,198 Q211,302 155.5,435.5 Q100,569 100,718 Q100,866 155.5,1001 Q211,1136 315,1239 Q417,1343 553.5,1399.5 Q690,1456 840,1456 M357,1197 Q262,1101 211,977.5 Q160,854 160,718 Q160,581 211,459 Q262,337 359,240 Q457,144 578,93 Q699,42 834,42 Q971,42 1093.5,92.5 Q1216,143 1313,238 Q1410,336 1462,459.5 Q1514,583 1514,718 Q1514,852 1462,977.5 Q1410,1103 1317,1197 Q1221,1293 1097,1344.5 Q973,1396 839,1396 Q702,1396 577,1344.5 Q452,1293 357,1197 M865,223 Q723,223 601,291 Q479,359 415,476 Q351,593 351,719 Q351,845 416.5,963 Q482,1081 604,1147.5 Q726,1214 858,1214 Q896,1214 933,1207.5 Q970,1201 1009,1187 Q1014,1186 1018,1186 Q1037,1186 1044,1216 L1086,1216 L1158,1018 L1114,1018 Q1062,1112 983,1142 Q911,1168 836,1168 L821,1168 Q735,1160 654.5,1097 Q574,1034 533,920 Q500,830 500,736 Q500,711 502,686 Q513,565 571.5,462 Q630,359 721,310 Q793,270 887,268 Q1011,268 1081,324 Q1151,380 1151,450 L1204,450 L1204,350 Q1204,304 1107.5,263.5 Q1011,223 865,223"/> 
            <glyph glyph-name="°" unicode="&#xB0;" horiz-adv-x="725" d=" M-12,-281 Q-72,-281 -72,-252 L-72,-93 L-36,-93 Q-35,-136 -1.5,-157.5 Q32,-179 62,-179 L63,-179 Q145,-179 178,-17 Q210,145 218,299 L288,1033 L296,1095 Q323,1333 431,1524.5 Q539,1716 665,1716 Q725,1716 725,1687 L725,1528 L689,1528 Q688,1571 654,1592.5 Q620,1614 591,1614 Q520,1614 475,1458.5 Q430,1303 426,1095 L353,328 Q333,97 222.5,-92 Q112,-281 -12,-281"/> 
            <glyph glyph-name="²" unicode="&#xB2;" horiz-adv-x="927" d=" M87,1241 L927,757 L927,674 L87,193 L87,360 L712,715 L87,1074 M87,2 L87,142 L926,142 L927,141 L927,2"/> 
            <glyph glyph-name="´" unicode="&#xB4;" horiz-adv-x="587" d=" M427,371 L587,371 L587,-418 L427,-418 M427,1578 L587,1578 L587,789 L427,789"/> 
            <glyph glyph-name="µ" unicode="&#xB5;" horiz-adv-x="929" d=" M929,1435 L929,1365 L802,1365 L802,0 L720,0 L720,1365 L554,1365 L554,0 L470,0 L470,738 Q296,746 194.5,840.5 Q93,935 93,1086 Q93,1243 200.5,1339 Q308,1435 486,1435"/> 
            <glyph glyph-name="¶" unicode="&#xB6;" horiz-adv-x="1073" d=" M514,1195 L108,123 L909,123 M547,1434 L1073,0 L6,0"/> 
            <glyph glyph-name="·" unicode="&#xB7;" horiz-adv-x="874" d=" M814,790 L874,724 L795,651 L519,651 L538,790 M245,651 L175,727 L259,790 L522,790 L502,651"/> 
            <glyph glyph-name="¸" unicode="&#xB8;" horiz-adv-x="1144" d=" M1059,548 L271,-366 L906,-366 Q1036,-366 1095,-184 L1144,-184 L1041,-416 L120,-416 L120,-366 Q182,-366 226,-313 L889,468 L226,1327 Q182,1384 120,1384 L120,1434 L1041,1434 L1144,1202 L1095,1202 Q1036,1384 906,1384 L421,1384"/> 
            <glyph glyph-name="º" unicode="&#xBA;" horiz-adv-x="923" d=" M923,1053 L923,897 Q860,825 801,799.5 Q742,774 685,774 Q625,774 507.5,822.5 Q390,871 331,871 Q280,871 223.5,843 Q167,815 94,731 L94,887 Q158,960 217,986 Q276,1012 331,1012 Q395,1012 512.5,962.5 Q630,913 685,913 Q737,913 793.5,941 Q850,969 923,1053 M923,705 L923,549 Q860,477 801,451.5 Q742,426 685,426 Q625,426 507.5,474.5 Q390,523 331,523 Q280,523 223.5,495 Q167,467 94,383 L94,539 Q158,612 217,638 Q276,664 331,664 Q395,664 512.5,614.5 Q630,565 685,565 Q737,565 793.5,593 Q850,621 923,705"/> 
            <glyph glyph-name="»" unicode="&#xBB;" horiz-adv-x="843" d=" M174,479 L516,782 L530,782 L530,745 L325,479 L530,213 L530,176 L516,176 M487,479 L829,782 L843,782 L843,745 L638,479 L843,213 L843,176 L829,176"/> 
            <glyph glyph-name="¼" unicode="&#xBC;" horiz-adv-x="770" d=" M115,176 L101,176 L101,213 L306,479 L101,745 L101,782 L115,782 L457,479 M428,176 L414,176 L414,213 L619,479 L414,745 L414,782 L428,782 L770,479"/> 
            <glyph glyph-name="Á" unicode="&#xC1;" horiz-adv-x="874" d=" M814,790 L874,724 L795,651 L519,651 L538,790 M245,651 L175,727 L259,790 L522,790 L502,651 M161,707 L217,637 L144,155 L28,63 L0,105 L91,658 M711,140 L790,35 L734,0 L414,0 L439,140 M84,0 L49,42 L164,141 L427,140 L402,0 M448,640 L576,640 L499,153 L366,153"/> 
            <glyph glyph-name="Â" unicode="&#xC2;" horiz-adv-x="1574" d=" M751,1099 L751,725 L754,717 Q777,661 810,636 Q839,614 866,614 L872,614 Q903,618 933.5,652.5 Q964,687 980,750 Q993,800 993,853 Q993,866 992,880 Q988,947 964,1004.5 Q940,1062 907.5,1080.5 Q875,1099 844,1099 M984,576 L1066,460 Q1166,319 1216,319 L1250,319 L1250,269 L904,269 L904,319 L949,319 Q979,319 979,341 Q979,370 910,455 L835,557 Q793,557 751,599 L751,440 Q751,319 787,319 L840,319 L840,269 L524,269 L524,319 L567,319 Q604,319 604,440 L604,978 Q604,1099 567,1099 L524,1099 L524,1169 L880,1169 Q944,1168 1005,1127 Q1065,1086 1097.5,1013 Q1130,940 1130,861 Q1130,783 1098,710.5 Q1066,638 984,576 M840,1456 Q985,1456 1120,1399.5 Q1255,1343 1359,1239 Q1461,1138 1517.5,1001 Q1574,864 1574,718 Q1574,571 1517.5,436 Q1461,301 1355,196 Q1250,91 1116,36.5 Q982,-18 833,-18 Q687,-18 555,37.5 Q423,93 317,198 Q211,302 155.5,435.5 Q100,569 100,718 Q100,866 155.5,1001 Q211,1136 315,1239 Q417,1343 553.5,1399.5 Q690,1456 840,1456 M357,1197 Q262,1101 211,977.5 Q160,854 160,718 Q160,581 211,459 Q262,337 359,240 Q457,144 578,93 Q699,42 834,42 Q971,42 1093.5,92.5 Q1216,143 1313,238 Q1410,336 1462,459.5 Q1514,583 1514,718 Q1514,852 1462,977.5 Q1410,1103 1317,1197 Q1221,1293 1097,1344.5 Q973,1396 839,1396 Q702,1396 577,1344.5 Q452,1293 357,1197"/> 
            <glyph glyph-name="Ã" unicode="&#xC3;" horiz-adv-x="951" d=" M439,755 Q424,858 365,888 Q319,910 281,910 Q269,910 258,908 Q209,898 165.5,863.5 Q122,829 100,779 Q80,733 80,689 L80,681 Q82,633 107.5,592 Q133,551 179,534 Q208,523 240,523 Q256,523 273,526 Q320,536 363.5,569.5 Q407,603 439,755 M466,687 Q478,591 560,534 Q629,486 683,486 Q694,486 704,488 Q766,500 821.5,540 Q877,580 906,641 Q932,695 932,749 L932,760 Q930,820 896.5,868.5 Q863,917 805,937 Q768,950 729,950 Q707,950 685,946 Q618,937 558,884 Q498,831 466,687 M450,827 Q459,862 471,896 Q505,984 566,1033 Q627,1082 694,1082 Q761,1082 822,1034 Q883,986 917,899 Q951,812 951,717 Q951,622 917,535 Q883,448 822,400 Q761,352 694,352 Q627,352 566,401 Q505,450 471,537 Q459,572 450,607 Q445,586 438,566 Q411,493 364,453 Q317,413 265,413 Q213,413 165,454 Q117,495 91.5,567.5 Q66,640 66,717 Q66,793 91.5,866 Q117,939 165,980 Q213,1021 265,1021 Q317,1021 364,981 Q411,941 438,869 Q445,848 450,827"/> 
            <glyph glyph-name="Å" unicode="&#xC5;" horiz-adv-x="927" d=" M927,1074 L302,715 L927,360 L927,193 L87,674 L87,757 L927,1241 M87,1 L87,141 L926,141 L927,140 L927,1"/> 
            <glyph glyph-name="Æ" unicode="&#xC6;" horiz-adv-x="1467" d=" M511,1384 Q409,1384 409,1149 L409,-132 Q409,-367 511,-367 L608,-367 L608,-418 L48,-418 L48,-367 L144,-367 Q247,-367 247,-132 L247,1149 Q247,1384 144,1384 L48,1384 L48,1434 L1467,1434 L1467,1384 L1370,1384 Q1268,1384 1268,1149 L1268,-132 Q1268,-367 1370,-367 L1467,-367 L1467,-417 L907,-417 L907,-367 L1003,-367 Q1106,-367 1106,-132 L1106,1149 Q1106,1384 1003,1384"/> 
            <glyph glyph-name="Ç" unicode="&#xC7;" horiz-adv-x="927" d=" M87,767 L927,767 L927,276 L926,275 L828,275 L828,667 L87,667"/> 
            <glyph glyph-name="É" unicode="&#xC9;" horiz-adv-x="530" d=" M174,479 L516,782 L530,782 L530,745 L325,479 L530,213 L530,176 L516,176"/> 
            <glyph glyph-name="Ê" unicode="&#xCA;" horiz-adv-x="457" d=" M313,328 L264,1364 Q264,1410 285,1433 Q306,1456 347,1456 Q389,1456 409.5,1433 Q430,1410 430,1364 L350,328 M223,167 L305,251 Q320,265 334,265 Q347,265 365,249 L445,163 Q457,147 457,134 Q457,119 443,103 L363,15 Q343,-5 334,-5 Q318,-5 305,9 L217,110 Q207,123 207,136 Q207,151 223,167"/> 
            <glyph glyph-name="Ð" unicode="&#xD0;" horiz-adv-x="2048" d=" M0,419 L0,539 L2048,539 L2048,419"/> 
            <glyph glyph-name="Ñ" unicode="&#xD1;" horiz-adv-x="438" d=" M319,1016 Q275,1016 230.5,1081.5 Q186,1147 186,1233 Q186,1342 257,1459.5 Q328,1577 396,1577 L396,1534 Q323,1491 309,1344 Q309,1225 438,1183 L438,1141"/> 
            <glyph glyph-name="Ò" unicode="&#xD2;" horiz-adv-x="724" d=" M238,1577 Q282,1577 326.5,1511.5 Q371,1446 371,1360 Q371,1251 300,1133.5 Q229,1016 161,1016 L161,1059 Q234,1102 248,1249 Q248,1368 119,1410 L119,1452 M591,1577 Q635,1577 679.5,1511.5 Q724,1446 724,1360 Q724,1251 653,1133.5 Q582,1016 514,1016 L514,1059 Q587,1102 601,1249 Q601,1368 472,1410 L472,1452"/> 
            <glyph glyph-name="Ó" unicode="&#xD3;" horiz-adv-x="724" d=" M238,281 Q282,281 326.5,215.5 Q371,150 371,64 Q371,-45 300,-162.5 Q229,-280 161,-280 L161,-237 Q234,-194 248,-47 Q248,72 119,114 L119,156 M591,281 Q635,281 679.5,215.5 Q724,150 724,64 Q724,-45 653,-162.5 Q582,-280 514,-280 L514,-237 Q587,-194 601,-47 Q601,72 472,114 L472,156"/> 
            <glyph glyph-name="Ô" unicode="&#xD4;" horiz-adv-x="371" d=" M238,1577 Q282,1577 326.5,1511.5 Q371,1446 371,1360 Q371,1251 300,1133.5 Q229,1016 161,1016 L161,1059 Q234,1102 248,1249 Q248,1368 119,1410 L119,1452"/> 
            <glyph glyph-name="Õ" unicode="&#xD5;" horiz-adv-x="371" d=" M238,281 Q282,281 326.5,215.5 Q371,150 371,64 Q371,-45 300,-162.5 Q229,-280 161,-280 L161,-237 Q234,-194 248,-47 Q248,72 119,114 L119,156"/> 
            <glyph glyph-name="Ø" unicode="&#xD8;" horiz-adv-x="474" d=" M328,223 Q328,50 428,50 L474,50 L474,0 L32,0 L32,50 L78,50 Q178,50 178,223 L178,655 Q178,732 67,732 L19,732 L19,776 Q241,845 280,958 L328,958"/> 
            <glyph glyph-name="Ú" unicode="&#xDA;" horiz-adv-x="1066" d=" M247,357 L53,357 L53,417 L247,417 L247,1149 Q247,1384 144,1384 L48,1384 L48,1434 L963,1434 L1066,1203 L1017,1203 Q958,1385 827,1385 L511,1384 Q409,1384 409,1149 L409,797 L770,797 Q870,797 870,860 L870,918 L920,918 L920,576 L870,576 L870,636 Q870,698 770,698 L409,698 L409,417 L603,417 L603,357 L409,357 L409,285 Q409,50 511,50 L608,50 L608,0 L48,0 L48,50 L144,50 Q247,50 247,285"/> 
            <glyph glyph-name="Ü" unicode="&#xDC;" horiz-adv-x="457" d=" M115,176 L101,176 L101,213 L306,479 L101,745 L101,782 L115,782 L457,479"/> 
            <glyph glyph-name="Ý" unicode="&#xDD;" horiz-adv-x="682" d=" M-342,-29 L598,1432 L682,1432 L-256,-29"/> 
            <glyph glyph-name="à" unicode="&#xE0;" horiz-adv-x="808" d=" M216,718 Q216,841 303,927 Q390,1013 513,1013 Q635,1013 721.5,926.5 Q808,840 808,718 Q808,596 720.5,508.5 Q633,421 511,421 Q388,421 302,508 Q216,595 216,718"/> 
            <glyph glyph-name="á" unicode="&#xE1;" horiz-adv-x="768" d=" M360,-290 Q445,-342 512,-342 Q578,-342 606.5,-320.5 Q635,-299 635,-254 Q635,-209 586,-190 Q546,-174 484,-174 Q468,-174 450,-176 L498,0 L561,0 L524,-104 Q556,-100 586,-99 Q672,-99 720,-139.5 Q768,-180 768,-253 Q768,-329 709.5,-373.5 Q651,-418 549,-418 Q440,-418 360,-386"/> 
            <glyph glyph-name="â" unicode="&#xE2;" horiz-adv-x="791" d=" M319,1016 Q275,1016 230.5,1081.5 Q186,1147 186,1233 Q186,1342 257,1459.5 Q328,1577 396,1577 L396,1534 Q323,1491 309,1344 Q309,1225 438,1183 L438,1141 M672,1016 Q628,1016 583.5,1081.5 Q539,1147 539,1233 Q539,1342 610,1459.5 Q681,1577 749,1577 L749,1534 Q676,1491 662,1344 Q662,1225 791,1183 L791,1141"/> 
            <glyph glyph-name="ã" unicode="&#xE3;" horiz-adv-x="944" d=" M486,1022 Q478,1119 432,1200 Q375,1301 375,1329 Q375,1378 411,1407.5 Q447,1437 507,1437 Q564,1437 601.5,1409.5 Q639,1382 639,1338 Q639,1306 584,1201 Q538,1116 529,1022 Q625,1030 706,1076 Q807,1133 835,1133 Q884,1133 914,1097 Q944,1061 944,1001 Q944,944 916.5,906.5 Q889,869 844,869 Q812,869 708,924 Q623,970 529,981 Q537,805 639,704 Q533,244 527,-270 L489,-270 Q483,244 375,704 Q477,805 486,981 Q390,971 308,926 Q207,869 179,869 Q130,869 100.5,905 Q71,941 71,1001 Q71,1058 98.5,1095.5 Q126,1133 170,1133 Q202,1133 307,1077 Q392,1031 486,1022"/> 
            <glyph glyph-name="õ" unicode="&#xF5;" horiz-adv-x="803" d=" M221,1079 L453,1434 L571,1434 L803,1079 L745,1079 L512,1295 L279,1079"/> 
            <glyph glyph-name="ö" unicode="&#xF6;" horiz-adv-x="803" d=" M221,1434 L279,1434 L512,1220 L745,1434 L803,1434 L571,1078 L453,1078"/> 
            <glyph glyph-name="÷" unicode="&#xF7;" horiz-adv-x="806" d=" M217,1079 L361,1352 Q385,1396 406.5,1415 Q428,1434 453,1434 Q481,1434 501,1414 Q521,1394 521,1367 Q521,1351 510.5,1332 Q500,1313 480,1291 L275,1079 M502,1079 L646,1352 Q670,1396 691.5,1415 Q713,1434 738,1434 Q766,1434 786,1414 Q806,1394 806,1367 Q806,1351 795.5,1332 Q785,1313 765,1291 L560,1079"/> 
            <glyph glyph-name="ø" unicode="&#xF8;" horiz-adv-x="673" d=" M330,1301 L252,1406 L301,1434 L620,1434 L598,1301 M231,1392 L315,1287 L231,797 L166,747 L105,818 L196,1364 M245,651 L175,727 L259,790 L522,790 L502,651 M461,800 L592,800 L673,1287 L540,1287"/> 
            <glyph glyph-name="ù" unicode="&#xF9;" horiz-adv-x="623" d=" M422,1289 L491,1361 Q497,1367 504,1370 Q511,1373 518,1373 Q524,1373 530.5,1370 Q537,1367 543,1361 L614,1285 Q619,1281 621,1275 Q623,1269 623,1261 Q622,1252 620,1246 Q618,1240 612,1234 L541,1158 Q529,1147 525,1144.5 Q521,1142 518,1142 Q508,1142 501.5,1144.5 Q495,1147 491,1153 L416,1240 Q412,1244 410,1249.5 Q408,1255 408,1263 Q408,1269 411,1275.5 Q414,1282 422,1289"/> 
            <glyph glyph-name="ú" unicode="&#xFA;" horiz-adv-x="690" d=" M411,1257 Q411,1215 440,1186 Q469,1157 511,1157 Q553,1157 582,1186 Q611,1215 611,1257 Q611,1297 581.5,1326.5 Q552,1356 511,1356 Q470,1356 440.5,1326.5 Q411,1297 411,1257 M335,1257 Q335,1332 386,1383 Q437,1434 511,1434 Q587,1434 638.5,1382.5 Q690,1331 690,1257 Q690,1182 638.5,1130.5 Q587,1079 511,1079 Q437,1079 386,1130.5 Q335,1182 335,1257"/> 
            <glyph glyph-name="û" unicode="&#xFB;" horiz-adv-x="737" d=" M640,0 Q569,-62 529.5,-119.5 Q490,-177 490,-232 Q490,-279 517,-307 Q544,-335 590,-335 Q630,-335 659.5,-319.5 Q689,-304 709,-271 L737,-287 Q701,-350 646.5,-384 Q592,-418 527,-418 Q457,-418 413,-382.5 Q369,-347 369,-292 Q369,-216 429.5,-135.5 Q490,-55 591,0"/> 
            <glyph glyph-name="ý" unicode="&#xFD;" horiz-adv-x="1052" d=" M56,419 L56,539 L1052,539 L1052,419"/> 
            <glyph glyph-name="þ" unicode="&#xFE;" horiz-adv-x="999" d=" M958,1434 L999,1393 L882,1301 L614,1301 L635,1434 M330,1301 L252,1406 L301,1434 L620,1434 L598,1301"/> 
            <glyph glyph-name="ÿ" unicode="&#xFF;" horiz-adv-x="770" d=" M254,1195 L254,1320 L770,1320 L770,1195"/> 
            <glyph glyph-name=" " unicode="&#x20;" horiz-adv-x="1049" d=" M1014,1378 L1049,1336 L965,804 L888,741 L832,804 L900,1289 M461,800 L592,800 L673,1287 L540,1287"/> 
            <glyph glyph-name="!" unicode="&#x21;" horiz-adv-x="1219" d=" M596,859 L511,569 L753,569 L839,859 M673,1434 L766,1434 L625,957 L867,957 L1009,1434 L1101,1434 L960,957 L1219,957 L1190,860 L931,860 L848,570 L1127,570 L1097,472 L817,472 L677,0 L585,0 L724,472 L484,472 L342,0 L250,0 L390,472 L117,472 L147,570 L418,570 L504,860 L209,860 L238,957 L533,957"/> 
            <glyph glyph-name="&quot;" unicode="&#x22;" horiz-adv-x="999" d=" M301,1434 L958,1434 L999,1393 L882,1301 L330,1301 L252,1406 M231,1392 L315,1287 L231,797 L166,747 L105,818 L196,1364 M814,790 L874,724 L795,651 L519,651 L538,790 M245,651 L175,727 L259,790 L522,790 L502,651 M881,700 L944,630 L853,82 L811,56 L729,155 L812,638 M164,141 L711,140 L790,35 L734,0 L84,0 L49,42 M461,800 L592,800 L673,1287 L540,1287 M448,640 L576,640 L499,153 L366,153"/> 
            <glyph glyph-name="#" unicode="&#x23;" horiz-adv-x="944" d=" M330,1301 L252,1406 L301,1434 L620,1434 L598,1301 M231,1392 L315,1287 L231,797 L166,747 L105,818 L196,1364 M814,790 L874,724 L795,651 L519,651 L538,790 M245,651 L175,727 L259,790 L522,790 L502,651 M881,700 L944,630 L853,82 L811,56 L729,155 L812,638 M711,140 L790,35 L734,0 L414,0 L439,140 M461,800 L592,800 L673,1287 L540,1287 M886,1287 L875,1204 L697,800 L606,800 L618,883 L799,1287 M448,640 L576,640 L499,153 L366,153 M435,639 L424,556 L246,152 L155,152 L167,235 L348,639"/> 
            <glyph glyph-name="$" unicode="&#x24;" horiz-adv-x="874" d=" M330,1301 L252,1406 L301,1434 L620,1434 L598,1301 M814,790 L874,724 L795,651 L519,651 L538,790 M245,651 L175,727 L259,790 L522,790 L502,651 M161,707 L217,637 L144,155 L28,63 L0,105 L91,658 M711,140 L790,35 L734,0 L414,0 L439,140 M84,0 L49,42 L164,141 L427,140 L402,0 M326,1289 L408,1289 L464,890 L450,799 L361,799 L311,1202 M589,639 L671,639 L727,240 L713,149 L624,149 L574,552"/> 
            <glyph glyph-name="%" unicode="&#x25;" horiz-adv-x="673" d=" M461,800 L592,800 L673,1287 L540,1287"/> 
            <glyph glyph-name="&amp;" unicode="&#x26;" horiz-adv-x="999" d=" M958,1434 L999,1393 L882,1301 L614,1301 L635,1434 M711,140 L790,35 L734,0 L414,0 L439,140 M461,800 L592,800 L673,1287 L540,1287 M448,640 L576,640 L499,153 L366,153"/> 
            <glyph glyph-name="'" unicode="&#x27;" horiz-adv-x="673" d=" M330,1301 L252,1406 L301,1434 L620,1434 L598,1301 M84,0 L49,42 L164,141 L427,140 L402,0 M461,800 L592,800 L673,1287 L540,1287 M448,640 L576,640 L499,153 L366,153"/> 
            <glyph glyph-name="(" unicode="&#x28;" horiz-adv-x="886" d=" M814,790 L874,724 L795,651 L519,651 L538,790 M245,651 L175,727 L259,790 L522,790 L502,651 M461,800 L592,800 L673,1287 L540,1287 M886,1287 L875,1204 L697,800 L606,800 L618,883 L799,1287 M326,1289 L408,1289 L464,890 L450,799 L361,799 L311,1202 M448,640 L576,640 L499,153 L366,153 M589,639 L671,639 L727,240 L713,149 L624,149 L574,552 M435,639 L424,556 L246,152 L155,152 L167,235 L348,639"/> 
            <glyph glyph-name=")" unicode="&#x29;" horiz-adv-x="874" d=" M814,790 L874,724 L795,651 L519,651 L538,790 M245,651 L175,727 L259,790 L522,790 L502,651 M461,800 L592,800 L673,1287 L540,1287 M448,640 L576,640 L499,153 L366,153"/> 
            <glyph glyph-name="*" unicode="&#x2A;" horiz-adv-x="435" d=" M435,639 L424,556 L246,152 L155,152 L167,235 L348,639"/> 
            <glyph glyph-name="+" unicode="&#x2B;" horiz-adv-x="874" d=" M814,790 L874,724 L795,651 L519,651 L538,790 M245,651 L175,727 L259,790 L522,790 L502,651"/> 
            <glyph glyph-name="," unicode="&#x2C;" horiz-adv-x="379" d=" M145,167 L227,251 Q242,265 256,265 Q269,265 287,249 L367,163 Q379,147 379,134 Q379,119 365,103 L285,15 Q265,-5 256,-5 Q240,-5 227,9 L139,110 Q129,123 129,136 Q129,151 145,167"/> 
            <glyph glyph-name="-" unicode="&#x2D;" horiz-adv-x="886" d=" M886,1287 L875,1204 L697,800 L606,800 L618,883 L799,1287 M435,639 L424,556 L246,152 L155,152 L167,235 L348,639"/> 
            <glyph glyph-name="." unicode="&#x2E;" horiz-adv-x="1049" d=" M301,1434 L958,1434 L999,1393 L882,1301 L330,1301 L252,1406 M231,1392 L315,1287 L231,797 L166,747 L105,818 L196,1364 M1014,1378 L1049,1336 L965,804 L888,741 L832,804 L900,1289 M161,707 L217,637 L144,155 L28,63 L0,105 L91,658 M881,700 L944,630 L853,82 L811,56 L729,155 L812,638 M164,141 L711,140 L790,35 L734,0 L84,0 L49,42"/> 
            </font>
</defs>
</svg>
